<?xml version="1.0" encoding="utf-8" standalone="no"?>
<!DOCTYPE svg PUBLIC "-//W3C//DTD SVG 1.1//EN"
  "http://www.w3.org/Graphics/SVG/1.1/DTD/svg11.dtd">
<svg xmlns:xlink="http://www.w3.org/1999/xlink" width="500.573088pt" height="236.291594pt" viewBox="0 0 500.573088 236.291594" xmlns="http://www.w3.org/2000/svg" version="1.1">
 <metadata>
  <rdf:RDF xmlns:dc="http://purl.org/dc/elements/1.1/" xmlns:cc="http://creativecommons.org/ns#" xmlns:rdf="http://www.w3.org/1999/02/22-rdf-syntax-ns#">
   <cc:Work>
    <dc:type rdf:resource="http://purl.org/dc/dcmitype/StillImage"/>
    <dc:date>2026-03-30T19:49:38.538643</dc:date>
    <dc:format>image/svg+xml</dc:format>
    <dc:creator>
     <cc:Agent>
      <dc:title>Matplotlib v3.10.8, https://matplotlib.org/</dc:title>
     </cc:Agent>
    </dc:creator>
   </cc:Work>
  </rdf:RDF>
 </metadata>
 <defs>
  <style type="text/css">*{stroke-linejoin: round; stroke-linecap: butt}</style>
 </defs>
 <g id="figure_1">
  <g id="patch_1">
   <path d="M 0 236.291594 
L 500.573088 236.291594 
L 500.573088 0 
L 0 0 
z
" style="fill: #ffffff"/>
  </g>
  <g id="axes_1">
   <g id="patch_2">
    <path d="M 31.7875 207.828 
L 163.219755 207.828 
L 163.219755 58 
L 31.7875 58 
z
" style="fill: #ffffff"/>
   </g>
   <g id="matplotlib.axis_1">
    <g id="xtick_1">
     <g id="line2d_1">
      <defs>
       <path id="m969a0592ba" d="M 0 0 
L 0 2 
" style="stroke: #444444; stroke-width: 0.8"/>
      </defs>
      <g>
       <use xlink:href="#m969a0592ba" x="64.645564" y="207.828" style="fill: #444444; stroke: #444444; stroke-width: 0.8"/>
      </g>
     </g>
     <g id="text_1">
      <!-- Original -->
      <g style="fill: #444444" transform="translate(49.128767 219.026828) scale(0.075 -0.075)">
       <defs>
        <path id="DejaVuSerif-4f" d="M 2625 244 
Q 3391 244 3781 770 
Q 4172 1297 4172 2328 
Q 4172 3363 3781 3889 
Q 3391 4416 2625 4416 
Q 1856 4416 1465 3889 
Q 1075 3363 1075 2328 
Q 1075 1297 1465 770 
Q 1856 244 2625 244 
z
M 2625 -91 
Q 2150 -91 1751 65 
Q 1353 222 1050 525 
Q 700 875 529 1319 
Q 359 1763 359 2328 
Q 359 2894 529 3339 
Q 700 3784 1050 4134 
Q 1356 4441 1750 4595 
Q 2144 4750 2625 4750 
Q 3641 4750 4266 4084 
Q 4891 3419 4891 2328 
Q 4891 1769 4719 1320 
Q 4547 872 4197 525 
Q 3891 219 3497 64 
Q 3103 -91 2625 -91 
z
" transform="scale(0.015625)"/>
        <path id="DejaVuSerif-72" d="M 3059 3328 
L 3059 2497 
L 2728 2497 
Q 2713 2744 2591 2866 
Q 2469 2988 2234 2988 
Q 1809 2988 1582 2694 
Q 1356 2400 1356 1850 
L 1356 331 
L 2022 331 
L 2022 0 
L 263 0 
L 263 331 
L 781 331 
L 781 2994 
L 231 2994 
L 231 3322 
L 1356 3322 
L 1356 2731 
Q 1525 3078 1790 3245 
Q 2056 3413 2438 3413 
Q 2578 3413 2733 3391 
Q 2888 3369 3059 3328 
z
" transform="scale(0.015625)"/>
        <path id="DejaVuSerif-69" d="M 622 4353 
Q 622 4497 726 4603 
Q 831 4709 978 4709 
Q 1122 4709 1226 4603 
Q 1331 4497 1331 4353 
Q 1331 4206 1228 4103 
Q 1125 4000 978 4000 
Q 831 4000 726 4103 
Q 622 4206 622 4353 
z
M 1356 331 
L 1900 331 
L 1900 0 
L 231 0 
L 231 331 
L 781 331 
L 781 2988 
L 231 2988 
L 231 3322 
L 1356 3322 
L 1356 331 
z
" transform="scale(0.015625)"/>
        <path id="DejaVuSerif-67" d="M 3359 2988 
L 3359 72 
Q 3359 -644 2965 -1033 
Q 2572 -1422 1844 -1422 
Q 1516 -1422 1216 -1362 
Q 916 -1303 641 -1184 
L 641 -488 
L 941 -488 
Q 997 -813 1206 -963 
Q 1416 -1113 1806 -1113 
Q 2313 -1113 2548 -827 
Q 2784 -541 2784 72 
L 2784 519 
Q 2616 206 2355 57 
Q 2094 -91 1709 -91 
Q 1097 -91 708 395 
Q 319 881 319 1663 
Q 319 2444 706 2928 
Q 1094 3413 1709 3413 
Q 2094 3413 2355 3264 
Q 2616 3116 2784 2803 
L 2784 3322 
L 3909 3322 
L 3909 2988 
L 3359 2988 
z
M 2784 1825 
Q 2784 2422 2554 2737 
Q 2325 3053 1888 3053 
Q 1444 3053 1217 2703 
Q 991 2353 991 1663 
Q 991 975 1217 622 
Q 1444 269 1888 269 
Q 2325 269 2554 583 
Q 2784 897 2784 1497 
L 2784 1825 
z
" transform="scale(0.015625)"/>
        <path id="DejaVuSerif-6e" d="M 263 0 
L 263 331 
L 781 331 
L 781 2988 
L 231 2988 
L 231 3322 
L 1356 3322 
L 1356 2731 
Q 1516 3069 1770 3241 
Q 2025 3413 2363 3413 
Q 2913 3413 3172 3097 
Q 3431 2781 3431 2113 
L 3431 331 
L 3944 331 
L 3944 0 
L 2356 0 
L 2356 331 
L 2853 331 
L 2853 1931 
Q 2853 2541 2703 2767 
Q 2553 2994 2175 2994 
Q 1775 2994 1565 2701 
Q 1356 2409 1356 1850 
L 1356 331 
L 1856 331 
L 1856 0 
L 263 0 
z
" transform="scale(0.015625)"/>
        <path id="DejaVuSerif-61" d="M 2547 1044 
L 2547 1747 
L 1806 1747 
Q 1378 1747 1168 1562 
Q 959 1378 959 997 
Q 959 650 1171 447 
Q 1384 244 1747 244 
Q 2106 244 2326 466 
Q 2547 688 2547 1044 
z
M 3122 2075 
L 3122 331 
L 3634 331 
L 3634 0 
L 2547 0 
L 2547 359 
Q 2356 128 2106 18 
Q 1856 -91 1522 -91 
Q 969 -91 644 203 
Q 319 497 319 997 
Q 319 1513 691 1797 
Q 1063 2081 1741 2081 
L 2547 2081 
L 2547 2309 
Q 2547 2688 2317 2895 
Q 2088 3103 1672 3103 
Q 1328 3103 1125 2947 
Q 922 2791 872 2484 
L 575 2484 
L 575 3156 
Q 875 3284 1158 3348 
Q 1441 3413 1709 3413 
Q 2400 3413 2761 3070 
Q 3122 2728 3122 2075 
z
" transform="scale(0.015625)"/>
        <path id="DejaVuSerif-6c" d="M 1313 331 
L 1856 331 
L 1856 0 
L 184 0 
L 184 331 
L 738 331 
L 738 4531 
L 184 4531 
L 184 4863 
L 1313 4863 
L 1313 331 
z
" transform="scale(0.015625)"/>
       </defs>
       <use xlink:href="#DejaVuSerif-4f"/>
       <use xlink:href="#DejaVuSerif-72" transform="translate(81.982422 0)"/>
       <use xlink:href="#DejaVuSerif-69" transform="translate(129.785156 0)"/>
       <use xlink:href="#DejaVuSerif-67" transform="translate(161.767578 0)"/>
       <use xlink:href="#DejaVuSerif-69" transform="translate(225.78125 0)"/>
       <use xlink:href="#DejaVuSerif-6e" transform="translate(257.763672 0)"/>
       <use xlink:href="#DejaVuSerif-61" transform="translate(322.167969 0)"/>
       <use xlink:href="#DejaVuSerif-6c" transform="translate(381.787109 0)"/>
      </g>
      <!-- GitHub repo -->
      <g style="fill: #444444" transform="translate(40.995368 227.531828) scale(0.075 -0.075)">
       <defs>
        <path id="DejaVuSerif-47" d="M 4097 3272 
Q 3988 3856 3641 4136 
Q 3294 4416 2675 4416 
Q 1869 4416 1472 3897 
Q 1075 3378 1075 2328 
Q 1075 1300 1484 772 
Q 1894 244 2688 244 
Q 3041 244 3362 331 
Q 3684 419 3975 594 
L 3975 1797 
L 3097 1797 
L 3097 2131 
L 4609 2131 
L 4609 391 
Q 4194 150 3714 29 
Q 3234 -91 2688 -91 
Q 1631 -91 995 570 
Q 359 1231 359 2328 
Q 359 3434 996 4092 
Q 1634 4750 2713 4750 
Q 3113 4750 3539 4658 
Q 3966 4566 4447 4378 
L 4447 3272 
L 4097 3272 
z
" transform="scale(0.015625)"/>
        <path id="DejaVuSerif-74" d="M 691 2988 
L 184 2988 
L 184 3322 
L 691 3322 
L 691 4353 
L 1269 4353 
L 1269 3322 
L 2350 3322 
L 2350 2988 
L 1269 2988 
L 1269 878 
Q 1269 456 1350 337 
Q 1431 219 1650 219 
Q 1875 219 1978 351 
Q 2081 484 2088 781 
L 2522 781 
Q 2497 328 2275 118 
Q 2053 -91 1600 -91 
Q 1103 -91 897 129 
Q 691 350 691 878 
L 691 2988 
z
" transform="scale(0.015625)"/>
        <path id="DejaVuSerif-48" d="M 353 0 
L 353 331 
L 947 331 
L 947 4331 
L 353 4331 
L 353 4666 
L 2175 4666 
L 2175 4331 
L 1581 4331 
L 1581 2719 
L 4000 2719 
L 4000 4331 
L 3406 4331 
L 3406 4666 
L 5228 4666 
L 5228 4331 
L 4634 4331 
L 4634 331 
L 5228 331 
L 5228 0 
L 3406 0 
L 3406 331 
L 4000 331 
L 4000 2338 
L 1581 2338 
L 1581 331 
L 2175 331 
L 2175 0 
L 353 0 
z
" transform="scale(0.015625)"/>
        <path id="DejaVuSerif-75" d="M 2266 3322 
L 3341 3322 
L 3341 331 
L 3884 331 
L 3884 0 
L 2766 0 
L 2766 588 
Q 2606 256 2353 82 
Q 2100 -91 1766 -91 
Q 1213 -91 952 223 
Q 691 538 691 1209 
L 691 2988 
L 172 2988 
L 172 3322 
L 1269 3322 
L 1269 1388 
Q 1269 781 1417 556 
Q 1566 331 1947 331 
Q 2347 331 2556 625 
Q 2766 919 2766 1478 
L 2766 2988 
L 2266 2988 
L 2266 3322 
z
" transform="scale(0.015625)"/>
        <path id="DejaVuSerif-62" d="M 738 331 
L 738 4531 
L 184 4531 
L 184 4863 
L 1313 4863 
L 1313 2803 
Q 1481 3116 1742 3264 
Q 2003 3413 2388 3413 
Q 3000 3413 3387 2928 
Q 3775 2444 3775 1663 
Q 3775 881 3387 395 
Q 3000 -91 2388 -91 
Q 2003 -91 1742 57 
Q 1481 206 1313 519 
L 1313 0 
L 184 0 
L 184 331 
L 738 331 
z
M 1313 1497 
Q 1313 897 1542 583 
Q 1772 269 2209 269 
Q 2650 269 2876 622 
Q 3103 975 3103 1663 
Q 3103 2353 2876 2703 
Q 2650 3053 2209 3053 
Q 1772 3053 1542 2737 
Q 1313 2422 1313 1825 
L 1313 1497 
z
" transform="scale(0.015625)"/>
        <path id="DejaVuSerif-20" transform="scale(0.015625)"/>
        <path id="DejaVuSerif-65" d="M 3469 1600 
L 991 1600 
L 991 1575 
Q 991 903 1244 561 
Q 1497 219 1991 219 
Q 2369 219 2611 417 
Q 2853 616 2950 1006 
L 3413 1006 
Q 3275 459 2904 184 
Q 2534 -91 1931 -91 
Q 1203 -91 761 389 
Q 319 869 319 1663 
Q 319 2450 753 2931 
Q 1188 3413 1894 3413 
Q 2647 3413 3050 2948 
Q 3453 2484 3469 1600 
z
M 2791 1931 
Q 2772 2513 2545 2808 
Q 2319 3103 1894 3103 
Q 1497 3103 1269 2806 
Q 1041 2509 991 1931 
L 2791 1931 
z
" transform="scale(0.015625)"/>
        <path id="DejaVuSerif-70" d="M 1313 1825 
L 1313 1497 
Q 1313 897 1542 583 
Q 1772 269 2209 269 
Q 2650 269 2876 622 
Q 3103 975 3103 1663 
Q 3103 2353 2876 2703 
Q 2650 3053 2209 3053 
Q 1772 3053 1542 2737 
Q 1313 2422 1313 1825 
z
M 738 2988 
L 184 2988 
L 184 3322 
L 1313 3322 
L 1313 2803 
Q 1481 3116 1742 3264 
Q 2003 3413 2388 3413 
Q 3000 3413 3387 2928 
Q 3775 2444 3775 1663 
Q 3775 881 3387 395 
Q 3000 -91 2388 -91 
Q 2003 -91 1742 57 
Q 1481 206 1313 519 
L 1313 -997 
L 1856 -997 
L 1856 -1331 
L 184 -1331 
L 184 -997 
L 738 -997 
L 738 2988 
z
" transform="scale(0.015625)"/>
        <path id="DejaVuSerif-6f" d="M 1925 219 
Q 2388 219 2623 584 
Q 2859 950 2859 1663 
Q 2859 2375 2623 2739 
Q 2388 3103 1925 3103 
Q 1463 3103 1227 2739 
Q 991 2375 991 1663 
Q 991 950 1228 584 
Q 1466 219 1925 219 
z
M 1925 -91 
Q 1200 -91 759 389 
Q 319 869 319 1663 
Q 319 2456 758 2934 
Q 1197 3413 1925 3413 
Q 2653 3413 3092 2934 
Q 3531 2456 3531 1663 
Q 3531 869 3092 389 
Q 2653 -91 1925 -91 
z
" transform="scale(0.015625)"/>
       </defs>
       <use xlink:href="#DejaVuSerif-47"/>
       <use xlink:href="#DejaVuSerif-69" transform="translate(79.882812 0)"/>
       <use xlink:href="#DejaVuSerif-74" transform="translate(111.865234 0)"/>
       <use xlink:href="#DejaVuSerif-48" transform="translate(152.050781 0)"/>
       <use xlink:href="#DejaVuSerif-75" transform="translate(239.257812 0)"/>
       <use xlink:href="#DejaVuSerif-62" transform="translate(303.662109 0)"/>
       <use xlink:href="#DejaVuSerif-20" transform="translate(367.675781 0)"/>
       <use xlink:href="#DejaVuSerif-72" transform="translate(399.462891 0)"/>
       <use xlink:href="#DejaVuSerif-65" transform="translate(447.265625 0)"/>
       <use xlink:href="#DejaVuSerif-70" transform="translate(506.445312 0)"/>
       <use xlink:href="#DejaVuSerif-6f" transform="translate(570.458984 0)"/>
      </g>
     </g>
    </g>
    <g id="xtick_2">
     <g id="line2d_2">
      <g>
       <use xlink:href="#m969a0592ba" x="130.361691" y="207.828" style="fill: #444444; stroke: #444444; stroke-width: 0.8"/>
      </g>
     </g>
     <g id="text_2">
      <!-- Agent-extracted -->
      <g style="fill: #444444" transform="translate(99.747043 219.026828) scale(0.075 -0.075)">
       <defs>
        <path id="DejaVuSerif-41" d="M 1281 1691 
L 2994 1691 
L 2138 3909 
L 1281 1691 
z
M -38 0 
L -38 331 
L 372 331 
L 2034 4666 
L 2559 4666 
L 4225 331 
L 4684 331 
L 4684 0 
L 2988 0 
L 2988 331 
L 3506 331 
L 3116 1356 
L 1153 1356 
L 763 331 
L 1275 331 
L 1275 0 
L -38 0 
z
" transform="scale(0.015625)"/>
        <path id="DejaVuSerif-2d" d="M 281 1959 
L 1881 1959 
L 1881 1472 
L 281 1472 
L 281 1959 
z
" transform="scale(0.015625)"/>
        <path id="DejaVuSerif-78" d="M 1863 2028 
L 2559 2988 
L 2113 2988 
L 2113 3322 
L 3391 3322 
L 3391 2988 
L 2950 2988 
L 2059 1759 
L 3097 331 
L 3531 331 
L 3531 0 
L 1997 0 
L 1997 331 
L 2419 331 
L 1697 1325 
L 972 331 
L 1403 331 
L 1403 0 
L 141 0 
L 141 331 
L 581 331 
L 1497 1594 
L 488 2988 
L 78 2988 
L 78 3322 
L 1563 3322 
L 1563 2988 
L 1166 2988 
L 1863 2028 
z
" transform="scale(0.015625)"/>
        <path id="DejaVuSerif-63" d="M 3291 997 
Q 3169 466 2822 187 
Q 2475 -91 1925 -91 
Q 1200 -91 759 389 
Q 319 869 319 1663 
Q 319 2459 759 2936 
Q 1200 3413 1925 3413 
Q 2241 3413 2553 3339 
Q 2866 3266 3181 3116 
L 3181 2266 
L 2847 2266 
Q 2781 2703 2561 2903 
Q 2341 3103 1931 3103 
Q 1466 3103 1228 2742 
Q 991 2381 991 1663 
Q 991 944 1227 581 
Q 1463 219 1931 219 
Q 2303 219 2525 412 
Q 2747 606 2828 997 
L 3291 997 
z
" transform="scale(0.015625)"/>
        <path id="DejaVuSerif-64" d="M 3359 331 
L 3909 331 
L 3909 0 
L 2784 0 
L 2784 519 
Q 2616 206 2355 57 
Q 2094 -91 1709 -91 
Q 1097 -91 708 395 
Q 319 881 319 1663 
Q 319 2444 706 2928 
Q 1094 3413 1709 3413 
Q 2094 3413 2355 3264 
Q 2616 3116 2784 2803 
L 2784 4531 
L 2241 4531 
L 2241 4863 
L 3359 4863 
L 3359 331 
z
M 2784 1497 
L 2784 1825 
Q 2784 2422 2554 2737 
Q 2325 3053 1888 3053 
Q 1444 3053 1217 2703 
Q 991 2353 991 1663 
Q 991 975 1217 622 
Q 1444 269 1888 269 
Q 2325 269 2554 583 
Q 2784 897 2784 1497 
z
" transform="scale(0.015625)"/>
       </defs>
       <use xlink:href="#DejaVuSerif-41"/>
       <use xlink:href="#DejaVuSerif-67" transform="translate(72.216797 0)"/>
       <use xlink:href="#DejaVuSerif-65" transform="translate(136.230469 0)"/>
       <use xlink:href="#DejaVuSerif-6e" transform="translate(195.410156 0)"/>
       <use xlink:href="#DejaVuSerif-74" transform="translate(259.814453 0)"/>
       <use xlink:href="#DejaVuSerif-2d" transform="translate(300 0)"/>
       <use xlink:href="#DejaVuSerif-65" transform="translate(333.789062 0)"/>
       <use xlink:href="#DejaVuSerif-78" transform="translate(392.96875 0)"/>
       <use xlink:href="#DejaVuSerif-74" transform="translate(449.365234 0)"/>
       <use xlink:href="#DejaVuSerif-72" transform="translate(489.550781 0)"/>
       <use xlink:href="#DejaVuSerif-61" transform="translate(537.353516 0)"/>
       <use xlink:href="#DejaVuSerif-63" transform="translate(596.972656 0)"/>
       <use xlink:href="#DejaVuSerif-74" transform="translate(652.978516 0)"/>
       <use xlink:href="#DejaVuSerif-65" transform="translate(693.164062 0)"/>
       <use xlink:href="#DejaVuSerif-64" transform="translate(752.34375 0)"/>
      </g>
      <!-- output -->
      <g style="fill: #444444" transform="translate(117.858957 227.531828) scale(0.075 -0.075)">
       <use xlink:href="#DejaVuSerif-6f"/>
       <use xlink:href="#DejaVuSerif-75" transform="translate(60.205078 0)"/>
       <use xlink:href="#DejaVuSerif-74" transform="translate(124.609375 0)"/>
       <use xlink:href="#DejaVuSerif-70" transform="translate(164.794922 0)"/>
       <use xlink:href="#DejaVuSerif-75" transform="translate(228.808594 0)"/>
       <use xlink:href="#DejaVuSerif-74" transform="translate(293.212891 0)"/>
      </g>
     </g>
    </g>
   </g>
   <g id="matplotlib.axis_2">
    <g id="ytick_1">
     <g id="line2d_3">
      <path d="M 31.7875 201.226117 
L 163.219755 201.226117 
" clip-path="url(#ped3774c24e)" style="fill: none; stroke: #e8e8e8; stroke-width: 0.4; stroke-linecap: square"/>
     </g>
     <g id="line2d_4">
      <defs>
       <path id="m977235aaf7" d="M 0 0 
L -2 0 
" style="stroke: #444444; stroke-width: 0.8"/>
      </defs>
      <g>
       <use xlink:href="#m977235aaf7" x="31.7875" y="201.226117" style="fill: #444444; stroke: #444444; stroke-width: 0.8"/>
      </g>
     </g>
     <g id="text_3">
      <!-- 0 -->
      <g style="fill: #444444" transform="translate(21.515625 204.075531) scale(0.075 -0.075)">
       <defs>
        <path id="DejaVuSerif-30" d="M 2034 219 
Q 2513 219 2750 744 
Q 2988 1269 2988 2328 
Q 2988 3391 2750 3916 
Q 2513 4441 2034 4441 
Q 1556 4441 1318 3916 
Q 1081 3391 1081 2328 
Q 1081 1269 1318 744 
Q 1556 219 2034 219 
z
M 2034 -91 
Q 1275 -91 848 546 
Q 422 1184 422 2328 
Q 422 3475 848 4112 
Q 1275 4750 2034 4750 
Q 2797 4750 3222 4112 
Q 3647 3475 3647 2328 
Q 3647 1184 3222 546 
Q 2797 -91 2034 -91 
z
" transform="scale(0.015625)"/>
       </defs>
       <use xlink:href="#DejaVuSerif-30"/>
      </g>
     </g>
    </g>
    <g id="ytick_2">
     <g id="line2d_5">
      <path d="M 31.7875 183.85274 
L 163.219755 183.85274 
" clip-path="url(#ped3774c24e)" style="fill: none; stroke: #e8e8e8; stroke-width: 0.4; stroke-linecap: square"/>
     </g>
     <g id="line2d_6">
      <g>
       <use xlink:href="#m977235aaf7" x="31.7875" y="183.85274" style="fill: #444444; stroke: #444444; stroke-width: 0.8"/>
      </g>
     </g>
     <g id="text_4">
      <!-- 500 -->
      <g style="fill: #444444" transform="translate(11.971875 186.702154) scale(0.075 -0.075)">
       <defs>
        <path id="DejaVuSerif-35" d="M 3219 4666 
L 3219 4153 
L 1081 4153 
L 1081 2816 
Q 1244 2928 1461 2984 
Q 1678 3041 1947 3041 
Q 2703 3041 3140 2622 
Q 3578 2203 3578 1478 
Q 3578 738 3136 323 
Q 2694 -91 1894 -91 
Q 1572 -91 1234 -12 
Q 897 66 544 225 
L 544 1131 
L 897 1131 
Q 925 688 1179 453 
Q 1434 219 1894 219 
Q 2388 219 2653 544 
Q 2919 869 2919 1478 
Q 2919 2084 2655 2407 
Q 2391 2731 1894 2731 
Q 1613 2731 1398 2631 
Q 1184 2531 1019 2322 
L 750 2322 
L 750 4666 
L 3219 4666 
z
" transform="scale(0.015625)"/>
       </defs>
       <use xlink:href="#DejaVuSerif-35"/>
       <use xlink:href="#DejaVuSerif-30" transform="translate(63.623047 0)"/>
       <use xlink:href="#DejaVuSerif-30" transform="translate(127.246094 0)"/>
      </g>
     </g>
    </g>
    <g id="ytick_3">
     <g id="line2d_7">
      <path d="M 31.7875 166.479364 
L 163.219755 166.479364 
" clip-path="url(#ped3774c24e)" style="fill: none; stroke: #e8e8e8; stroke-width: 0.4; stroke-linecap: square"/>
     </g>
     <g id="line2d_8">
      <g>
       <use xlink:href="#m977235aaf7" x="31.7875" y="166.479364" style="fill: #444444; stroke: #444444; stroke-width: 0.8"/>
      </g>
     </g>
     <g id="text_5">
      <!-- 1000 -->
      <g style="fill: #444444" transform="translate(7.2 169.328778) scale(0.075 -0.075)">
       <defs>
        <path id="DejaVuSerif-31" d="M 909 0 
L 909 331 
L 1722 331 
L 1722 4213 
L 781 3603 
L 781 4013 
L 1919 4750 
L 2350 4750 
L 2350 331 
L 3163 331 
L 3163 0 
L 909 0 
z
" transform="scale(0.015625)"/>
       </defs>
       <use xlink:href="#DejaVuSerif-31"/>
       <use xlink:href="#DejaVuSerif-30" transform="translate(63.623047 0)"/>
       <use xlink:href="#DejaVuSerif-30" transform="translate(127.246094 0)"/>
       <use xlink:href="#DejaVuSerif-30" transform="translate(190.869141 0)"/>
      </g>
     </g>
    </g>
    <g id="ytick_4">
     <g id="line2d_9">
      <path d="M 31.7875 149.105987 
L 163.219755 149.105987 
" clip-path="url(#ped3774c24e)" style="fill: none; stroke: #e8e8e8; stroke-width: 0.4; stroke-linecap: square"/>
     </g>
     <g id="line2d_10">
      <g>
       <use xlink:href="#m977235aaf7" x="31.7875" y="149.105987" style="fill: #444444; stroke: #444444; stroke-width: 0.8"/>
      </g>
     </g>
     <g id="text_6">
      <!-- 1500 -->
      <g style="fill: #444444" transform="translate(7.2 151.955401) scale(0.075 -0.075)">
       <use xlink:href="#DejaVuSerif-31"/>
       <use xlink:href="#DejaVuSerif-35" transform="translate(63.623047 0)"/>
       <use xlink:href="#DejaVuSerif-30" transform="translate(127.246094 0)"/>
       <use xlink:href="#DejaVuSerif-30" transform="translate(190.869141 0)"/>
      </g>
     </g>
    </g>
    <g id="ytick_5">
     <g id="line2d_11">
      <path d="M 31.7875 131.73261 
L 163.219755 131.73261 
" clip-path="url(#ped3774c24e)" style="fill: none; stroke: #e8e8e8; stroke-width: 0.4; stroke-linecap: square"/>
     </g>
     <g id="line2d_12">
      <g>
       <use xlink:href="#m977235aaf7" x="31.7875" y="131.73261" style="fill: #444444; stroke: #444444; stroke-width: 0.8"/>
      </g>
     </g>
     <g id="text_7">
      <!-- 2000 -->
      <g style="fill: #444444" transform="translate(7.2 134.582024) scale(0.075 -0.075)">
       <defs>
        <path id="DejaVuSerif-32" d="M 819 3553 
L 469 3553 
L 469 4384 
Q 803 4563 1142 4656 
Q 1481 4750 1806 4750 
Q 2534 4750 2956 4397 
Q 3378 4044 3378 3438 
Q 3378 2753 2422 1800 
Q 2347 1728 2309 1691 
L 1131 513 
L 3078 513 
L 3078 1088 
L 3444 1088 
L 3444 0 
L 434 0 
L 434 341 
L 1850 1753 
Q 2319 2222 2519 2614 
Q 2719 3006 2719 3438 
Q 2719 3909 2473 4175 
Q 2228 4441 1797 4441 
Q 1350 4441 1106 4219 
Q 863 3997 819 3553 
z
" transform="scale(0.015625)"/>
       </defs>
       <use xlink:href="#DejaVuSerif-32"/>
       <use xlink:href="#DejaVuSerif-30" transform="translate(63.623047 0)"/>
       <use xlink:href="#DejaVuSerif-30" transform="translate(127.246094 0)"/>
       <use xlink:href="#DejaVuSerif-30" transform="translate(190.869141 0)"/>
      </g>
     </g>
    </g>
    <g id="ytick_6">
     <g id="line2d_13">
      <path d="M 31.7875 114.359234 
L 163.219755 114.359234 
" clip-path="url(#ped3774c24e)" style="fill: none; stroke: #e8e8e8; stroke-width: 0.4; stroke-linecap: square"/>
     </g>
     <g id="line2d_14">
      <g>
       <use xlink:href="#m977235aaf7" x="31.7875" y="114.359234" style="fill: #444444; stroke: #444444; stroke-width: 0.8"/>
      </g>
     </g>
     <g id="text_8">
      <!-- 2500 -->
      <g style="fill: #444444" transform="translate(7.2 117.208648) scale(0.075 -0.075)">
       <use xlink:href="#DejaVuSerif-32"/>
       <use xlink:href="#DejaVuSerif-35" transform="translate(63.623047 0)"/>
       <use xlink:href="#DejaVuSerif-30" transform="translate(127.246094 0)"/>
       <use xlink:href="#DejaVuSerif-30" transform="translate(190.869141 0)"/>
      </g>
     </g>
    </g>
    <g id="ytick_7">
     <g id="line2d_15">
      <path d="M 31.7875 96.985857 
L 163.219755 96.985857 
" clip-path="url(#ped3774c24e)" style="fill: none; stroke: #e8e8e8; stroke-width: 0.4; stroke-linecap: square"/>
     </g>
     <g id="line2d_16">
      <g>
       <use xlink:href="#m977235aaf7" x="31.7875" y="96.985857" style="fill: #444444; stroke: #444444; stroke-width: 0.8"/>
      </g>
     </g>
     <g id="text_9">
      <!-- 3000 -->
      <g style="fill: #444444" transform="translate(7.2 99.835271) scale(0.075 -0.075)">
       <defs>
        <path id="DejaVuSerif-33" d="M 622 4469 
Q 988 4606 1323 4678 
Q 1659 4750 1953 4750 
Q 2638 4750 3022 4454 
Q 3406 4159 3406 3634 
Q 3406 3213 3140 2930 
Q 2875 2647 2388 2547 
Q 2963 2466 3280 2130 
Q 3597 1794 3597 1259 
Q 3597 606 3158 257 
Q 2719 -91 1894 -91 
Q 1528 -91 1179 -12 
Q 831 66 488 225 
L 488 1131 
L 838 1131 
Q 869 681 1141 450 
Q 1413 219 1906 219 
Q 2384 219 2661 495 
Q 2938 772 2938 1253 
Q 2938 1803 2653 2086 
Q 2369 2369 1819 2369 
L 1522 2369 
L 1522 2688 
L 1678 2688 
Q 2225 2688 2498 2914 
Q 2772 3141 2772 3597 
Q 2772 4006 2547 4223 
Q 2322 4441 1900 4441 
Q 1478 4441 1245 4241 
Q 1013 4041 972 3647 
L 622 3647 
L 622 4469 
z
" transform="scale(0.015625)"/>
       </defs>
       <use xlink:href="#DejaVuSerif-33"/>
       <use xlink:href="#DejaVuSerif-30" transform="translate(63.623047 0)"/>
       <use xlink:href="#DejaVuSerif-30" transform="translate(127.246094 0)"/>
       <use xlink:href="#DejaVuSerif-30" transform="translate(190.869141 0)"/>
      </g>
     </g>
    </g>
    <g id="ytick_8">
     <g id="line2d_17">
      <path d="M 31.7875 79.612481 
L 163.219755 79.612481 
" clip-path="url(#ped3774c24e)" style="fill: none; stroke: #e8e8e8; stroke-width: 0.4; stroke-linecap: square"/>
     </g>
     <g id="line2d_18">
      <g>
       <use xlink:href="#m977235aaf7" x="31.7875" y="79.612481" style="fill: #444444; stroke: #444444; stroke-width: 0.8"/>
      </g>
     </g>
     <g id="text_10">
      <!-- 3500 -->
      <g style="fill: #444444" transform="translate(7.2 82.461895) scale(0.075 -0.075)">
       <use xlink:href="#DejaVuSerif-33"/>
       <use xlink:href="#DejaVuSerif-35" transform="translate(63.623047 0)"/>
       <use xlink:href="#DejaVuSerif-30" transform="translate(127.246094 0)"/>
       <use xlink:href="#DejaVuSerif-30" transform="translate(190.869141 0)"/>
      </g>
     </g>
    </g>
    <g id="ytick_9">
     <g id="line2d_19">
      <path d="M 31.7875 62.239104 
L 163.219755 62.239104 
" clip-path="url(#ped3774c24e)" style="fill: none; stroke: #e8e8e8; stroke-width: 0.4; stroke-linecap: square"/>
     </g>
     <g id="line2d_20">
      <g>
       <use xlink:href="#m977235aaf7" x="31.7875" y="62.239104" style="fill: #444444; stroke: #444444; stroke-width: 0.8"/>
      </g>
     </g>
     <g id="text_11">
      <!-- 4000 -->
      <g style="fill: #444444" transform="translate(7.2 65.088518) scale(0.075 -0.075)">
       <defs>
        <path id="DejaVuSerif-34" d="M 2234 1581 
L 2234 4063 
L 641 1581 
L 2234 1581 
z
M 3609 0 
L 1484 0 
L 1484 331 
L 2234 331 
L 2234 1247 
L 197 1247 
L 197 1588 
L 2241 4750 
L 2859 4750 
L 2859 1581 
L 3750 1581 
L 3750 1247 
L 2859 1247 
L 2859 331 
L 3609 331 
L 3609 0 
z
" transform="scale(0.015625)"/>
       </defs>
       <use xlink:href="#DejaVuSerif-34"/>
       <use xlink:href="#DejaVuSerif-30" transform="translate(63.623047 0)"/>
       <use xlink:href="#DejaVuSerif-30" transform="translate(127.246094 0)"/>
       <use xlink:href="#DejaVuSerif-30" transform="translate(190.869141 0)"/>
      </g>
     </g>
    </g>
   </g>
   <g id="patch_3">
    <path d="M 48.216532 196.94358 
L 81.074596 196.94358 
L 81.074596 185.520584 
L 48.216532 185.520584 
L 48.216532 196.94358 
z
" clip-path="url(#ped3774c24e)" style="fill: #a8c4db; stroke: #2c5f8a; stroke-linejoin: miter"/>
   </g>
   <g id="line2d_21">
    <path d="M 64.645564 196.94358 
L 64.645564 200.392195 
" clip-path="url(#ped3774c24e)" style="fill: none; stroke: #000000; stroke-linecap: square"/>
   </g>
   <g id="line2d_22">
    <path d="M 64.645564 185.520584 
L 64.645564 178.328006 
" clip-path="url(#ped3774c24e)" style="fill: none; stroke: #000000; stroke-linecap: square"/>
   </g>
   <g id="line2d_23">
    <path d="M 56.431048 200.392195 
L 72.86008 200.392195 
" clip-path="url(#ped3774c24e)" style="fill: none; stroke: #000000; stroke-linecap: square"/>
   </g>
   <g id="line2d_24">
    <path d="M 56.431048 178.328006 
L 72.86008 178.328006 
" clip-path="url(#ped3774c24e)" style="fill: none; stroke: #000000; stroke-linecap: square"/>
   </g>
   <g id="line2d_25">
    <defs>
     <path id="ma4be779e1b" d="M 0 1.5 
C 0.397805 1.5 0.77937 1.341951 1.06066 1.06066 
C 1.341951 0.77937 1.5 0.397805 1.5 0 
C 1.5 -0.397805 1.341951 -0.77937 1.06066 -1.06066 
C 0.77937 -1.341951 0.397805 -1.5 0 -1.5 
C -0.397805 -1.5 -0.77937 -1.341951 -1.06066 -1.06066 
C -1.341951 -0.77937 -1.5 -0.397805 -1.5 0 
C -1.5 0.397805 -1.341951 0.77937 -1.06066 1.06066 
C -0.77937 1.341951 -0.397805 1.5 0 1.5 
z
" style="stroke: #000000; stroke-opacity: 0.5"/>
    </defs>
    <g clip-path="url(#ped3774c24e)">
     <use xlink:href="#ma4be779e1b" x="64.645564" y="152.962877" style="fill-opacity: 0; stroke: #000000; stroke-opacity: 0.5"/>
     <use xlink:href="#ma4be779e1b" x="64.645564" y="64.810364" style="fill-opacity: 0; stroke: #000000; stroke-opacity: 0.5"/>
     <use xlink:href="#ma4be779e1b" x="64.645564" y="159.669" style="fill-opacity: 0; stroke: #000000; stroke-opacity: 0.5"/>
     <use xlink:href="#ma4be779e1b" x="64.645564" y="146.986435" style="fill-opacity: 0; stroke: #000000; stroke-opacity: 0.5"/>
    </g>
   </g>
   <g id="patch_4">
    <path d="M 113.932659 199.914427 
L 146.790723 199.914427 
L 146.790723 193.390724 
L 113.932659 193.390724 
L 113.932659 199.914427 
z
" clip-path="url(#ped3774c24e)" style="fill: #a3d4b3; stroke: #3a8c5c; stroke-linejoin: miter"/>
   </g>
   <g id="line2d_26">
    <path d="M 130.361691 199.914427 
L 130.361691 201.017636 
" clip-path="url(#ped3774c24e)" style="fill: none; stroke: #000000; stroke-linecap: square"/>
   </g>
   <g id="line2d_27">
    <path d="M 130.361691 193.390724 
L 130.361691 187.153682 
" clip-path="url(#ped3774c24e)" style="fill: none; stroke: #000000; stroke-linecap: square"/>
   </g>
   <g id="line2d_28">
    <path d="M 122.147175 201.017636 
L 138.576207 201.017636 
" clip-path="url(#ped3774c24e)" style="fill: none; stroke: #000000; stroke-linecap: square"/>
   </g>
   <g id="line2d_29">
    <path d="M 122.147175 187.153682 
L 138.576207 187.153682 
" clip-path="url(#ped3774c24e)" style="fill: none; stroke: #000000; stroke-linecap: square"/>
   </g>
   <g id="line2d_30">
    <g clip-path="url(#ped3774c24e)">
     <use xlink:href="#ma4be779e1b" x="130.361691" y="180.065344" style="fill-opacity: 0; stroke: #000000; stroke-opacity: 0.5"/>
     <use xlink:href="#ma4be779e1b" x="130.361691" y="155.151922" style="fill-opacity: 0; stroke: #000000; stroke-opacity: 0.5"/>
    </g>
   </g>
   <g id="line2d_31">
    <path d="M 48.216532 193.547084 
L 81.074596 193.547084 
" clip-path="url(#ped3774c24e)" style="fill: none; stroke: #333333; stroke-width: 1.2"/>
   </g>
   <g id="line2d_32">
    <path d="M 113.932659 198.376883 
L 146.790723 198.376883 
" clip-path="url(#ped3774c24e)" style="fill: none; stroke: #333333; stroke-width: 1.2"/>
   </g>
   <g id="patch_5">
    <path d="M 31.7875 207.828 
L 31.7875 58 
" style="fill: none; stroke: #cccccc; stroke-width: 0.5; stroke-linejoin: miter; stroke-linecap: square"/>
   </g>
   <g id="patch_6">
    <path d="M 31.7875 207.828 
L 163.219755 207.828 
" style="fill: none; stroke: #cccccc; stroke-width: 0.5; stroke-linejoin: miter; stroke-linecap: square"/>
   </g>
   <g id="text_12">
    <!-- 63% reduction (median) -->
    <g style="fill: #6b7280" transform="translate(54.590346 70.810306) scale(0.07 -0.07)">
     <defs>
      <path id="DejaVuSerif-36" d="M 2094 219 
Q 2534 219 2771 542 
Q 3009 866 3009 1472 
Q 3009 2078 2771 2401 
Q 2534 2725 2094 2725 
Q 1647 2725 1412 2412 
Q 1178 2100 1178 1509 
Q 1178 888 1415 553 
Q 1653 219 2094 219 
z
M 1075 2569 
Q 1288 2803 1556 2918 
Q 1825 3034 2163 3034 
Q 2859 3034 3264 2615 
Q 3669 2197 3669 1472 
Q 3669 763 3233 336 
Q 2797 -91 2069 -91 
Q 1278 -91 853 498 
Q 428 1088 428 2181 
Q 428 3406 931 4078 
Q 1434 4750 2350 4750 
Q 2597 4750 2869 4703 
Q 3141 4656 3425 4563 
L 3425 3794 
L 3072 3794 
Q 3034 4109 2831 4275 
Q 2628 4441 2284 4441 
Q 1678 4441 1381 3981 
Q 1084 3522 1075 2569 
z
" transform="scale(0.015625)"/>
      <path id="DejaVuSerif-25" d="M 1434 4459 
Q 1159 4459 1004 4200 
Q 850 3941 850 3475 
Q 850 3016 1008 2753 
Q 1166 2491 1434 2491 
Q 1700 2491 1854 2752 
Q 2009 3013 2009 3475 
Q 2009 3938 1854 4198 
Q 1700 4459 1434 4459 
z
M 4653 2169 
Q 4381 2169 4226 1906 
Q 4072 1644 4072 1178 
Q 4072 719 4228 458 
Q 4384 197 4653 197 
Q 4922 197 5075 458 
Q 5228 719 5228 1178 
Q 5228 1641 5073 1905 
Q 4919 2169 4653 2169 
z
M 4653 2450 
Q 5147 2450 5437 2106 
Q 5728 1763 5728 1178 
Q 5728 594 5436 251 
Q 5144 -91 4653 -91 
Q 4153 -91 3862 251 
Q 3572 594 3572 1178 
Q 3572 1766 3864 2108 
Q 4156 2450 4653 2450 
z
M 4263 4750 
L 4738 4750 
L 1819 -91 
L 1344 -91 
L 4263 4750 
z
M 1428 4750 
Q 1922 4750 2215 4408 
Q 2509 4066 2509 3481 
Q 2509 2891 2217 2550 
Q 1925 2209 1428 2209 
Q 931 2209 642 2551 
Q 353 2894 353 3481 
Q 353 4063 643 4406 
Q 934 4750 1428 4750 
z
" transform="scale(0.015625)"/>
      <path id="DejaVuSerif-28" d="M 2041 -997 
Q 1281 -656 893 83 
Q 506 822 506 1931 
Q 506 3044 893 3783 
Q 1281 4522 2041 4863 
L 2041 4556 
Q 1559 4225 1350 3623 
Q 1141 3022 1141 1931 
Q 1141 844 1350 242 
Q 1559 -359 2041 -691 
L 2041 -997 
z
" transform="scale(0.015625)"/>
      <path id="DejaVuSerif-6d" d="M 3316 2675 
Q 3481 3041 3739 3227 
Q 3997 3413 4341 3413 
Q 4863 3413 5119 3089 
Q 5375 2766 5375 2113 
L 5375 331 
L 5894 331 
L 5894 0 
L 4300 0 
L 4300 331 
L 4800 331 
L 4800 2047 
Q 4800 2556 4650 2772 
Q 4500 2988 4153 2988 
Q 3769 2988 3567 2697 
Q 3366 2406 3366 1850 
L 3366 331 
L 3866 331 
L 3866 0 
L 2291 0 
L 2291 331 
L 2791 331 
L 2791 2069 
Q 2791 2566 2641 2777 
Q 2491 2988 2144 2988 
Q 1759 2988 1557 2697 
Q 1356 2406 1356 1850 
L 1356 331 
L 1856 331 
L 1856 0 
L 263 0 
L 263 331 
L 781 331 
L 781 2994 
L 231 2994 
L 231 3322 
L 1356 3322 
L 1356 2731 
Q 1516 3063 1762 3238 
Q 2009 3413 2322 3413 
Q 2709 3413 2968 3220 
Q 3228 3028 3316 2675 
z
" transform="scale(0.015625)"/>
      <path id="DejaVuSerif-29" d="M 453 -997 
L 453 -691 
Q 934 -359 1145 242 
Q 1356 844 1356 1931 
Q 1356 3022 1145 3623 
Q 934 4225 453 4556 
L 453 4863 
Q 1216 4522 1603 3783 
Q 1991 3044 1991 1931 
Q 1991 822 1603 83 
Q 1216 -656 453 -997 
z
" transform="scale(0.015625)"/>
     </defs>
     <use xlink:href="#DejaVuSerif-36"/>
     <use xlink:href="#DejaVuSerif-33" transform="translate(63.623047 0)"/>
     <use xlink:href="#DejaVuSerif-25" transform="translate(127.246094 0)"/>
     <use xlink:href="#DejaVuSerif-20" transform="translate(222.265625 0)"/>
     <use xlink:href="#DejaVuSerif-72" transform="translate(254.052734 0)"/>
     <use xlink:href="#DejaVuSerif-65" transform="translate(301.855469 0)"/>
     <use xlink:href="#DejaVuSerif-64" transform="translate(361.035156 0)"/>
     <use xlink:href="#DejaVuSerif-75" transform="translate(425.048828 0)"/>
     <use xlink:href="#DejaVuSerif-63" transform="translate(489.453125 0)"/>
     <use xlink:href="#DejaVuSerif-74" transform="translate(545.458984 0)"/>
     <use xlink:href="#DejaVuSerif-69" transform="translate(585.644531 0)"/>
     <use xlink:href="#DejaVuSerif-6f" transform="translate(617.626953 0)"/>
     <use xlink:href="#DejaVuSerif-6e" transform="translate(677.832031 0)"/>
     <use xlink:href="#DejaVuSerif-20" transform="translate(742.236328 0)"/>
     <use xlink:href="#DejaVuSerif-28" transform="translate(774.023438 0)"/>
     <use xlink:href="#DejaVuSerif-6d" transform="translate(813.037109 0)"/>
     <use xlink:href="#DejaVuSerif-65" transform="translate(907.861328 0)"/>
     <use xlink:href="#DejaVuSerif-64" transform="translate(967.041016 0)"/>
     <use xlink:href="#DejaVuSerif-69" transform="translate(1031.054688 0)"/>
     <use xlink:href="#DejaVuSerif-61" transform="translate(1063.037109 0)"/>
     <use xlink:href="#DejaVuSerif-6e" transform="translate(1122.65625 0)"/>
     <use xlink:href="#DejaVuSerif-29" transform="translate(1187.060547 0)"/>
    </g>
   </g>
   <g id="text_13">
    <!-- Total files -->
    <g transform="translate(75.263784 52) scale(0.09 -0.09)">
     <defs>
      <path id="DejaVuSerif-54" d="M 1222 0 
L 1222 331 
L 1819 331 
L 1819 4294 
L 447 4294 
L 447 3566 
L 63 3566 
L 63 4666 
L 4206 4666 
L 4206 3566 
L 3822 3566 
L 3822 4294 
L 2450 4294 
L 2450 331 
L 3047 331 
L 3047 0 
L 1222 0 
z
" transform="scale(0.015625)"/>
      <path id="DejaVuSerif-66" d="M 2753 4078 
L 2450 4078 
Q 2447 4313 2317 4434 
Q 2188 4556 1941 4556 
Q 1619 4556 1487 4379 
Q 1356 4203 1356 3750 
L 1356 3322 
L 2284 3322 
L 2284 2988 
L 1356 2988 
L 1356 331 
L 2094 331 
L 2094 0 
L 231 0 
L 231 331 
L 781 331 
L 781 2988 
L 231 2988 
L 231 3322 
L 781 3322 
L 781 3738 
Q 781 4294 1070 4578 
Q 1359 4863 1919 4863 
Q 2128 4863 2337 4825 
Q 2547 4788 2753 4709 
L 2753 4078 
z
" transform="scale(0.015625)"/>
      <path id="DejaVuSerif-73" d="M 359 184 
L 359 959 
L 691 959 
Q 703 588 923 403 
Q 1144 219 1575 219 
Q 1963 219 2166 364 
Q 2369 509 2369 788 
Q 2369 1006 2220 1140 
Q 2072 1275 1594 1428 
L 1178 1569 
Q 750 1706 558 1912 
Q 366 2119 366 2438 
Q 366 2894 700 3153 
Q 1034 3413 1625 3413 
Q 1888 3413 2178 3344 
Q 2469 3275 2778 3144 
L 2778 2419 
L 2447 2419 
Q 2434 2741 2221 2922 
Q 2009 3103 1644 3103 
Q 1281 3103 1095 2975 
Q 909 2847 909 2591 
Q 909 2381 1050 2254 
Q 1191 2128 1613 1997 
L 2069 1856 
Q 2541 1709 2748 1489 
Q 2956 1269 2956 922 
Q 2956 450 2595 179 
Q 2234 -91 1600 -91 
Q 1278 -91 972 -22 
Q 666 47 359 184 
z
" transform="scale(0.015625)"/>
     </defs>
     <use xlink:href="#DejaVuSerif-54"/>
     <use xlink:href="#DejaVuSerif-6f" transform="translate(58.949219 0)"/>
     <use xlink:href="#DejaVuSerif-74" transform="translate(119.154297 0)"/>
     <use xlink:href="#DejaVuSerif-61" transform="translate(159.339844 0)"/>
     <use xlink:href="#DejaVuSerif-6c" transform="translate(218.958984 0)"/>
     <use xlink:href="#DejaVuSerif-20" transform="translate(250.941406 0)"/>
     <use xlink:href="#DejaVuSerif-66" transform="translate(282.728516 0)"/>
     <use xlink:href="#DejaVuSerif-69" transform="translate(319.740234 0)"/>
     <use xlink:href="#DejaVuSerif-6c" transform="translate(351.722656 0)"/>
     <use xlink:href="#DejaVuSerif-65" transform="translate(383.705078 0)"/>
     <use xlink:href="#DejaVuSerif-73" transform="translate(442.884766 0)"/>
    </g>
   </g>
  </g>
  <g id="axes_2">
   <g id="patch_7">
    <path d="M 196.864167 207.828 
L 328.296422 207.828 
L 328.296422 58 
L 196.864167 58 
z
" style="fill: #ffffff"/>
   </g>
   <g id="matplotlib.axis_3">
    <g id="xtick_3">
     <g id="line2d_33">
      <g>
       <use xlink:href="#m969a0592ba" x="229.72223" y="207.828" style="fill: #444444; stroke: #444444; stroke-width: 0.8"/>
      </g>
     </g>
     <g id="text_14">
      <!-- Original -->
      <g style="fill: #444444" transform="translate(214.205434 219.026828) scale(0.075 -0.075)">
       <use xlink:href="#DejaVuSerif-4f"/>
       <use xlink:href="#DejaVuSerif-72" transform="translate(81.982422 0)"/>
       <use xlink:href="#DejaVuSerif-69" transform="translate(129.785156 0)"/>
       <use xlink:href="#DejaVuSerif-67" transform="translate(161.767578 0)"/>
       <use xlink:href="#DejaVuSerif-69" transform="translate(225.78125 0)"/>
       <use xlink:href="#DejaVuSerif-6e" transform="translate(257.763672 0)"/>
       <use xlink:href="#DejaVuSerif-61" transform="translate(322.167969 0)"/>
       <use xlink:href="#DejaVuSerif-6c" transform="translate(381.787109 0)"/>
      </g>
      <!-- GitHub repo -->
      <g style="fill: #444444" transform="translate(206.072035 227.531828) scale(0.075 -0.075)">
       <use xlink:href="#DejaVuSerif-47"/>
       <use xlink:href="#DejaVuSerif-69" transform="translate(79.882812 0)"/>
       <use xlink:href="#DejaVuSerif-74" transform="translate(111.865234 0)"/>
       <use xlink:href="#DejaVuSerif-48" transform="translate(152.050781 0)"/>
       <use xlink:href="#DejaVuSerif-75" transform="translate(239.257812 0)"/>
       <use xlink:href="#DejaVuSerif-62" transform="translate(303.662109 0)"/>
       <use xlink:href="#DejaVuSerif-20" transform="translate(367.675781 0)"/>
       <use xlink:href="#DejaVuSerif-72" transform="translate(399.462891 0)"/>
       <use xlink:href="#DejaVuSerif-65" transform="translate(447.265625 0)"/>
       <use xlink:href="#DejaVuSerif-70" transform="translate(506.445312 0)"/>
       <use xlink:href="#DejaVuSerif-6f" transform="translate(570.458984 0)"/>
      </g>
     </g>
    </g>
    <g id="xtick_4">
     <g id="line2d_34">
      <g>
       <use xlink:href="#m969a0592ba" x="295.438358" y="207.828" style="fill: #444444; stroke: #444444; stroke-width: 0.8"/>
      </g>
     </g>
     <g id="text_15">
      <!-- Agent-extracted -->
      <g style="fill: #444444" transform="translate(264.823709 219.026828) scale(0.075 -0.075)">
       <use xlink:href="#DejaVuSerif-41"/>
       <use xlink:href="#DejaVuSerif-67" transform="translate(72.216797 0)"/>
       <use xlink:href="#DejaVuSerif-65" transform="translate(136.230469 0)"/>
       <use xlink:href="#DejaVuSerif-6e" transform="translate(195.410156 0)"/>
       <use xlink:href="#DejaVuSerif-74" transform="translate(259.814453 0)"/>
       <use xlink:href="#DejaVuSerif-2d" transform="translate(300 0)"/>
       <use xlink:href="#DejaVuSerif-65" transform="translate(333.789062 0)"/>
       <use xlink:href="#DejaVuSerif-78" transform="translate(392.96875 0)"/>
       <use xlink:href="#DejaVuSerif-74" transform="translate(449.365234 0)"/>
       <use xlink:href="#DejaVuSerif-72" transform="translate(489.550781 0)"/>
       <use xlink:href="#DejaVuSerif-61" transform="translate(537.353516 0)"/>
       <use xlink:href="#DejaVuSerif-63" transform="translate(596.972656 0)"/>
       <use xlink:href="#DejaVuSerif-74" transform="translate(652.978516 0)"/>
       <use xlink:href="#DejaVuSerif-65" transform="translate(693.164062 0)"/>
       <use xlink:href="#DejaVuSerif-64" transform="translate(752.34375 0)"/>
      </g>
      <!-- output -->
      <g style="fill: #444444" transform="translate(282.935623 227.531828) scale(0.075 -0.075)">
       <use xlink:href="#DejaVuSerif-6f"/>
       <use xlink:href="#DejaVuSerif-75" transform="translate(60.205078 0)"/>
       <use xlink:href="#DejaVuSerif-74" transform="translate(124.609375 0)"/>
       <use xlink:href="#DejaVuSerif-70" transform="translate(164.794922 0)"/>
       <use xlink:href="#DejaVuSerif-75" transform="translate(228.808594 0)"/>
       <use xlink:href="#DejaVuSerif-74" transform="translate(293.212891 0)"/>
      </g>
     </g>
    </g>
   </g>
   <g id="matplotlib.axis_4">
    <g id="ytick_10">
     <g id="line2d_35">
      <path d="M 196.864167 201.017636 
L 328.296422 201.017636 
" clip-path="url(#pe765b4befa)" style="fill: none; stroke: #e8e8e8; stroke-width: 0.4; stroke-linecap: square"/>
     </g>
     <g id="line2d_36">
      <g>
       <use xlink:href="#m977235aaf7" x="196.864167" y="201.017636" style="fill: #444444; stroke: #444444; stroke-width: 0.8"/>
      </g>
     </g>
     <g id="text_16">
      <!-- 2 -->
      <g style="fill: #444444" transform="translate(186.592292 203.86705) scale(0.075 -0.075)">
       <use xlink:href="#DejaVuSerif-32"/>
      </g>
     </g>
    </g>
    <g id="ytick_11">
     <g id="line2d_37">
      <path d="M 196.864167 170.749354 
L 328.296422 170.749354 
" clip-path="url(#pe765b4befa)" style="fill: none; stroke: #e8e8e8; stroke-width: 0.4; stroke-linecap: square"/>
     </g>
     <g id="line2d_38">
      <g>
       <use xlink:href="#m977235aaf7" x="196.864167" y="170.749354" style="fill: #444444; stroke: #444444; stroke-width: 0.8"/>
      </g>
     </g>
     <g id="text_17">
      <!-- 4 -->
      <g style="fill: #444444" transform="translate(186.592292 173.598768) scale(0.075 -0.075)">
       <use xlink:href="#DejaVuSerif-34"/>
      </g>
     </g>
    </g>
    <g id="ytick_12">
     <g id="line2d_39">
      <path d="M 196.864167 140.481071 
L 328.296422 140.481071 
" clip-path="url(#pe765b4befa)" style="fill: none; stroke: #e8e8e8; stroke-width: 0.4; stroke-linecap: square"/>
     </g>
     <g id="line2d_40">
      <g>
       <use xlink:href="#m977235aaf7" x="196.864167" y="140.481071" style="fill: #444444; stroke: #444444; stroke-width: 0.8"/>
      </g>
     </g>
     <g id="text_18">
      <!-- 6 -->
      <g style="fill: #444444" transform="translate(186.592292 143.330485) scale(0.075 -0.075)">
       <use xlink:href="#DejaVuSerif-36"/>
      </g>
     </g>
    </g>
    <g id="ytick_13">
     <g id="line2d_41">
      <path d="M 196.864167 110.212788 
L 328.296422 110.212788 
" clip-path="url(#pe765b4befa)" style="fill: none; stroke: #e8e8e8; stroke-width: 0.4; stroke-linecap: square"/>
     </g>
     <g id="line2d_42">
      <g>
       <use xlink:href="#m977235aaf7" x="196.864167" y="110.212788" style="fill: #444444; stroke: #444444; stroke-width: 0.8"/>
      </g>
     </g>
     <g id="text_19">
      <!-- 8 -->
      <g style="fill: #444444" transform="translate(186.592292 113.062202) scale(0.075 -0.075)">
       <defs>
        <path id="DejaVuSerif-38" d="M 2981 1275 
Q 2981 1775 2732 2051 
Q 2484 2328 2034 2328 
Q 1584 2328 1336 2051 
Q 1088 1775 1088 1275 
Q 1088 772 1336 495 
Q 1584 219 2034 219 
Q 2484 219 2732 495 
Q 2981 772 2981 1275 
z
M 2853 3541 
Q 2853 3966 2637 4203 
Q 2422 4441 2034 4441 
Q 1650 4441 1433 4203 
Q 1216 3966 1216 3541 
Q 1216 3113 1433 2875 
Q 1650 2638 2034 2638 
Q 2422 2638 2637 2875 
Q 2853 3113 2853 3541 
z
M 2516 2484 
Q 3047 2413 3344 2092 
Q 3641 1772 3641 1275 
Q 3641 619 3225 264 
Q 2809 -91 2034 -91 
Q 1263 -91 845 264 
Q 428 619 428 1275 
Q 428 1772 725 2092 
Q 1022 2413 1556 2484 
Q 1084 2569 832 2842 
Q 581 3116 581 3541 
Q 581 4103 968 4426 
Q 1356 4750 2034 4750 
Q 2713 4750 3100 4426 
Q 3488 4103 3488 3541 
Q 3488 3116 3236 2842 
Q 2984 2569 2516 2484 
z
" transform="scale(0.015625)"/>
       </defs>
       <use xlink:href="#DejaVuSerif-38"/>
      </g>
     </g>
    </g>
    <g id="ytick_14">
     <g id="line2d_43">
      <path d="M 196.864167 79.944505 
L 328.296422 79.944505 
" clip-path="url(#pe765b4befa)" style="fill: none; stroke: #e8e8e8; stroke-width: 0.4; stroke-linecap: square"/>
     </g>
     <g id="line2d_44">
      <g>
       <use xlink:href="#m977235aaf7" x="196.864167" y="79.944505" style="fill: #444444; stroke: #444444; stroke-width: 0.8"/>
      </g>
     </g>
     <g id="text_20">
      <!-- 10 -->
      <g style="fill: #444444" transform="translate(181.820417 82.793919) scale(0.075 -0.075)">
       <use xlink:href="#DejaVuSerif-31"/>
       <use xlink:href="#DejaVuSerif-30" transform="translate(63.623047 0)"/>
      </g>
     </g>
    </g>
   </g>
   <g id="patch_8">
    <path d="M 213.293199 170.749354 
L 246.151262 170.749354 
L 246.151262 140.481071 
L 213.293199 140.481071 
L 213.293199 170.749354 
z
" clip-path="url(#pe765b4befa)" style="fill: #a8c4db; stroke: #2c5f8a; stroke-linejoin: miter"/>
   </g>
   <g id="line2d_45">
    <path d="M 229.72223 170.749354 
L 229.72223 201.017636 
" clip-path="url(#pe765b4befa)" style="fill: none; stroke: #000000; stroke-linecap: square"/>
   </g>
   <g id="line2d_46">
    <path d="M 229.72223 140.481071 
L 229.72223 95.078646 
" clip-path="url(#pe765b4befa)" style="fill: none; stroke: #000000; stroke-linecap: square"/>
   </g>
   <g id="line2d_47">
    <path d="M 221.507714 201.017636 
L 237.936746 201.017636 
" clip-path="url(#pe765b4befa)" style="fill: none; stroke: #000000; stroke-linecap: square"/>
   </g>
   <g id="line2d_48">
    <path d="M 221.507714 95.078646 
L 237.936746 95.078646 
" clip-path="url(#pe765b4befa)" style="fill: none; stroke: #000000; stroke-linecap: square"/>
   </g>
   <g id="line2d_49">
    <g clip-path="url(#pe765b4befa)">
     <use xlink:href="#ma4be779e1b" x="229.72223" y="64.810364" style="fill-opacity: 0; stroke: #000000; stroke-opacity: 0.5"/>
    </g>
   </g>
   <g id="patch_9">
    <path d="M 279.009326 201.017636 
L 311.86739 201.017636 
L 311.86739 185.883495 
L 279.009326 185.883495 
L 279.009326 201.017636 
z
" clip-path="url(#pe765b4befa)" style="fill: #a3d4b3; stroke: #3a8c5c; stroke-linejoin: miter"/>
   </g>
   <g id="line2d_50">
    <path d="M 295.438358 201.017636 
L 295.438358 201.017636 
" clip-path="url(#pe765b4befa)" style="fill: none; stroke: #000000; stroke-linecap: square"/>
   </g>
   <g id="line2d_51">
    <path d="M 295.438358 185.883495 
L 295.438358 170.749354 
" clip-path="url(#pe765b4befa)" style="fill: none; stroke: #000000; stroke-linecap: square"/>
   </g>
   <g id="line2d_52">
    <path d="M 287.223842 201.017636 
L 303.652874 201.017636 
" clip-path="url(#pe765b4befa)" style="fill: none; stroke: #000000; stroke-linecap: square"/>
   </g>
   <g id="line2d_53">
    <path d="M 287.223842 170.749354 
L 303.652874 170.749354 
" clip-path="url(#pe765b4befa)" style="fill: none; stroke: #000000; stroke-linecap: square"/>
   </g>
   <g id="line2d_54">
    <g clip-path="url(#pe765b4befa)">
     <use xlink:href="#ma4be779e1b" x="295.438358" y="155.615212" style="fill-opacity: 0; stroke: #000000; stroke-opacity: 0.5"/>
     <use xlink:href="#ma4be779e1b" x="295.438358" y="140.481071" style="fill-opacity: 0; stroke: #000000; stroke-opacity: 0.5"/>
    </g>
   </g>
   <g id="line2d_55">
    <path d="M 213.293199 155.615212 
L 246.151262 155.615212 
" clip-path="url(#pe765b4befa)" style="fill: none; stroke: #333333; stroke-width: 1.2"/>
   </g>
   <g id="line2d_56">
    <path d="M 279.009326 201.017636 
L 311.86739 201.017636 
" clip-path="url(#pe765b4befa)" style="fill: none; stroke: #333333; stroke-width: 1.2"/>
   </g>
   <g id="patch_10">
    <path d="M 196.864167 207.828 
L 196.864167 58 
" style="fill: none; stroke: #cccccc; stroke-width: 0.5; stroke-linejoin: miter; stroke-linecap: square"/>
   </g>
   <g id="patch_11">
    <path d="M 196.864167 207.828 
L 328.296422 207.828 
" style="fill: none; stroke: #cccccc; stroke-width: 0.5; stroke-linejoin: miter; stroke-linecap: square"/>
   </g>
   <g id="text_21">
    <!-- 60% reduction (median) -->
    <g style="fill: #6b7280" transform="translate(219.667013 70.810306) scale(0.07 -0.07)">
     <use xlink:href="#DejaVuSerif-36"/>
     <use xlink:href="#DejaVuSerif-30" transform="translate(63.623047 0)"/>
     <use xlink:href="#DejaVuSerif-25" transform="translate(127.246094 0)"/>
     <use xlink:href="#DejaVuSerif-20" transform="translate(222.265625 0)"/>
     <use xlink:href="#DejaVuSerif-72" transform="translate(254.052734 0)"/>
     <use xlink:href="#DejaVuSerif-65" transform="translate(301.855469 0)"/>
     <use xlink:href="#DejaVuSerif-64" transform="translate(361.035156 0)"/>
     <use xlink:href="#DejaVuSerif-75" transform="translate(425.048828 0)"/>
     <use xlink:href="#DejaVuSerif-63" transform="translate(489.453125 0)"/>
     <use xlink:href="#DejaVuSerif-74" transform="translate(545.458984 0)"/>
     <use xlink:href="#DejaVuSerif-69" transform="translate(585.644531 0)"/>
     <use xlink:href="#DejaVuSerif-6f" transform="translate(617.626953 0)"/>
     <use xlink:href="#DejaVuSerif-6e" transform="translate(677.832031 0)"/>
     <use xlink:href="#DejaVuSerif-20" transform="translate(742.236328 0)"/>
     <use xlink:href="#DejaVuSerif-28" transform="translate(774.023438 0)"/>
     <use xlink:href="#DejaVuSerif-6d" transform="translate(813.037109 0)"/>
     <use xlink:href="#DejaVuSerif-65" transform="translate(907.861328 0)"/>
     <use xlink:href="#DejaVuSerif-64" transform="translate(967.041016 0)"/>
     <use xlink:href="#DejaVuSerif-69" transform="translate(1031.054688 0)"/>
     <use xlink:href="#DejaVuSerif-61" transform="translate(1063.037109 0)"/>
     <use xlink:href="#DejaVuSerif-6e" transform="translate(1122.65625 0)"/>
     <use xlink:href="#DejaVuSerif-29" transform="translate(1187.060547 0)"/>
    </g>
   </g>
   <g id="text_22">
    <!-- Max directory depth -->
    <g transform="translate(215.894903 52) scale(0.09 -0.09)">
     <defs>
      <path id="DejaVuSerif-4d" d="M 353 0 
L 353 331 
L 947 331 
L 947 4331 
L 319 4331 
L 319 4666 
L 1678 4666 
L 3316 1344 
L 4953 4666 
L 6228 4666 
L 6228 4331 
L 5606 4331 
L 5606 331 
L 6203 331 
L 6203 0 
L 4378 0 
L 4378 331 
L 4972 331 
L 4972 3938 
L 3372 684 
L 2931 684 
L 1331 3938 
L 1331 331 
L 1925 331 
L 1925 0 
L 353 0 
z
" transform="scale(0.015625)"/>
      <path id="DejaVuSerif-79" d="M 1381 -609 
L 1600 -56 
L 359 2988 
L -19 2988 
L -19 3322 
L 1509 3322 
L 1509 2988 
L 978 2988 
L 1913 703 
L 2847 2988 
L 2350 2988 
L 2350 3322 
L 3597 3322 
L 3597 2988 
L 3225 2988 
L 1703 -750 
Q 1547 -1138 1356 -1280 
Q 1166 -1422 819 -1422 
Q 672 -1422 517 -1397 
Q 363 -1372 206 -1325 
L 206 -691 
L 500 -691 
Q 519 -903 608 -995 
Q 697 -1088 884 -1088 
Q 1056 -1088 1161 -992 
Q 1266 -897 1381 -609 
z
" transform="scale(0.015625)"/>
      <path id="DejaVuSerif-68" d="M 263 0 
L 263 331 
L 781 331 
L 781 4531 
L 231 4531 
L 231 4863 
L 1356 4863 
L 1356 2731 
Q 1516 3069 1770 3241 
Q 2025 3413 2363 3413 
Q 2913 3413 3172 3097 
Q 3431 2781 3431 2113 
L 3431 331 
L 3944 331 
L 3944 0 
L 2356 0 
L 2356 331 
L 2853 331 
L 2853 1931 
Q 2853 2541 2704 2764 
Q 2556 2988 2175 2988 
Q 1775 2988 1565 2697 
Q 1356 2406 1356 1850 
L 1356 331 
L 1856 331 
L 1856 0 
L 263 0 
z
" transform="scale(0.015625)"/>
     </defs>
     <use xlink:href="#DejaVuSerif-4d"/>
     <use xlink:href="#DejaVuSerif-61" transform="translate(102.392578 0)"/>
     <use xlink:href="#DejaVuSerif-78" transform="translate(162.011719 0)"/>
     <use xlink:href="#DejaVuSerif-20" transform="translate(218.408203 0)"/>
     <use xlink:href="#DejaVuSerif-64" transform="translate(250.195312 0)"/>
     <use xlink:href="#DejaVuSerif-69" transform="translate(314.208984 0)"/>
     <use xlink:href="#DejaVuSerif-72" transform="translate(346.191406 0)"/>
     <use xlink:href="#DejaVuSerif-65" transform="translate(393.994141 0)"/>
     <use xlink:href="#DejaVuSerif-63" transform="translate(453.173828 0)"/>
     <use xlink:href="#DejaVuSerif-74" transform="translate(509.179688 0)"/>
     <use xlink:href="#DejaVuSerif-6f" transform="translate(549.365234 0)"/>
     <use xlink:href="#DejaVuSerif-72" transform="translate(609.570312 0)"/>
     <use xlink:href="#DejaVuSerif-79" transform="translate(657.373047 0)"/>
     <use xlink:href="#DejaVuSerif-20" transform="translate(713.867188 0)"/>
     <use xlink:href="#DejaVuSerif-64" transform="translate(745.654297 0)"/>
     <use xlink:href="#DejaVuSerif-65" transform="translate(809.667969 0)"/>
     <use xlink:href="#DejaVuSerif-70" transform="translate(868.847656 0)"/>
     <use xlink:href="#DejaVuSerif-74" transform="translate(932.861328 0)"/>
     <use xlink:href="#DejaVuSerif-68" transform="translate(973.046875 0)"/>
    </g>
   </g>
  </g>
  <g id="axes_3">
   <g id="patch_12">
    <path d="M 361.940833 207.828 
L 493.373088 207.828 
L 493.373088 58 
L 361.940833 58 
z
" style="fill: #ffffff"/>
   </g>
   <g id="matplotlib.axis_5">
    <g id="xtick_5">
     <g id="line2d_57">
      <g>
       <use xlink:href="#m969a0592ba" x="394.798897" y="207.828" style="fill: #444444; stroke: #444444; stroke-width: 0.8"/>
      </g>
     </g>
     <g id="text_23">
      <!-- Original -->
      <g style="fill: #444444" transform="translate(379.2821 219.026828) scale(0.075 -0.075)">
       <use xlink:href="#DejaVuSerif-4f"/>
       <use xlink:href="#DejaVuSerif-72" transform="translate(81.982422 0)"/>
       <use xlink:href="#DejaVuSerif-69" transform="translate(129.785156 0)"/>
       <use xlink:href="#DejaVuSerif-67" transform="translate(161.767578 0)"/>
       <use xlink:href="#DejaVuSerif-69" transform="translate(225.78125 0)"/>
       <use xlink:href="#DejaVuSerif-6e" transform="translate(257.763672 0)"/>
       <use xlink:href="#DejaVuSerif-61" transform="translate(322.167969 0)"/>
       <use xlink:href="#DejaVuSerif-6c" transform="translate(381.787109 0)"/>
      </g>
      <!-- GitHub repo -->
      <g style="fill: #444444" transform="translate(371.148702 227.531828) scale(0.075 -0.075)">
       <use xlink:href="#DejaVuSerif-47"/>
       <use xlink:href="#DejaVuSerif-69" transform="translate(79.882812 0)"/>
       <use xlink:href="#DejaVuSerif-74" transform="translate(111.865234 0)"/>
       <use xlink:href="#DejaVuSerif-48" transform="translate(152.050781 0)"/>
       <use xlink:href="#DejaVuSerif-75" transform="translate(239.257812 0)"/>
       <use xlink:href="#DejaVuSerif-62" transform="translate(303.662109 0)"/>
       <use xlink:href="#DejaVuSerif-20" transform="translate(367.675781 0)"/>
       <use xlink:href="#DejaVuSerif-72" transform="translate(399.462891 0)"/>
       <use xlink:href="#DejaVuSerif-65" transform="translate(447.265625 0)"/>
       <use xlink:href="#DejaVuSerif-70" transform="translate(506.445312 0)"/>
       <use xlink:href="#DejaVuSerif-6f" transform="translate(570.458984 0)"/>
      </g>
     </g>
    </g>
    <g id="xtick_6">
     <g id="line2d_58">
      <g>
       <use xlink:href="#m969a0592ba" x="460.515025" y="207.828" style="fill: #444444; stroke: #444444; stroke-width: 0.8"/>
      </g>
     </g>
     <g id="text_24">
      <!-- Agent-extracted -->
      <g style="fill: #444444" transform="translate(429.900376 219.026828) scale(0.075 -0.075)">
       <use xlink:href="#DejaVuSerif-41"/>
       <use xlink:href="#DejaVuSerif-67" transform="translate(72.216797 0)"/>
       <use xlink:href="#DejaVuSerif-65" transform="translate(136.230469 0)"/>
       <use xlink:href="#DejaVuSerif-6e" transform="translate(195.410156 0)"/>
       <use xlink:href="#DejaVuSerif-74" transform="translate(259.814453 0)"/>
       <use xlink:href="#DejaVuSerif-2d" transform="translate(300 0)"/>
       <use xlink:href="#DejaVuSerif-65" transform="translate(333.789062 0)"/>
       <use xlink:href="#DejaVuSerif-78" transform="translate(392.96875 0)"/>
       <use xlink:href="#DejaVuSerif-74" transform="translate(449.365234 0)"/>
       <use xlink:href="#DejaVuSerif-72" transform="translate(489.550781 0)"/>
       <use xlink:href="#DejaVuSerif-61" transform="translate(537.353516 0)"/>
       <use xlink:href="#DejaVuSerif-63" transform="translate(596.972656 0)"/>
       <use xlink:href="#DejaVuSerif-74" transform="translate(652.978516 0)"/>
       <use xlink:href="#DejaVuSerif-65" transform="translate(693.164062 0)"/>
       <use xlink:href="#DejaVuSerif-64" transform="translate(752.34375 0)"/>
      </g>
      <!-- output -->
      <g style="fill: #444444" transform="translate(448.01229 227.531828) scale(0.075 -0.075)">
       <use xlink:href="#DejaVuSerif-6f"/>
       <use xlink:href="#DejaVuSerif-75" transform="translate(60.205078 0)"/>
       <use xlink:href="#DejaVuSerif-74" transform="translate(124.609375 0)"/>
       <use xlink:href="#DejaVuSerif-70" transform="translate(164.794922 0)"/>
       <use xlink:href="#DejaVuSerif-75" transform="translate(228.808594 0)"/>
       <use xlink:href="#DejaVuSerif-74" transform="translate(293.212891 0)"/>
      </g>
     </g>
    </g>
   </g>
   <g id="matplotlib.axis_6">
    <g id="ytick_15">
     <g id="line2d_59">
      <path d="M 361.940833 202.592287 
L 493.373088 202.592287 
" clip-path="url(#p1691b059b9)" style="fill: none; stroke: #e8e8e8; stroke-width: 0.4; stroke-linecap: square"/>
     </g>
     <g id="line2d_60">
      <g>
       <use xlink:href="#m977235aaf7" x="361.940833" y="202.592287" style="fill: #444444; stroke: #444444; stroke-width: 0.8"/>
      </g>
     </g>
     <g id="text_25">
      <!-- 0 -->
      <g style="fill: #444444" transform="translate(351.668958 205.441701) scale(0.075 -0.075)">
       <use xlink:href="#DejaVuSerif-30"/>
      </g>
     </g>
    </g>
    <g id="ytick_16">
     <g id="line2d_61">
      <path d="M 361.940833 182.909155 
L 493.373088 182.909155 
" clip-path="url(#p1691b059b9)" style="fill: none; stroke: #e8e8e8; stroke-width: 0.4; stroke-linecap: square"/>
     </g>
     <g id="line2d_62">
      <g>
       <use xlink:href="#m977235aaf7" x="361.940833" y="182.909155" style="fill: #444444; stroke: #444444; stroke-width: 0.8"/>
      </g>
     </g>
     <g id="text_26">
      <!-- 50 -->
      <g style="fill: #444444" transform="translate(346.897083 185.758569) scale(0.075 -0.075)">
       <use xlink:href="#DejaVuSerif-35"/>
       <use xlink:href="#DejaVuSerif-30" transform="translate(63.623047 0)"/>
      </g>
     </g>
    </g>
    <g id="ytick_17">
     <g id="line2d_63">
      <path d="M 361.940833 163.226023 
L 493.373088 163.226023 
" clip-path="url(#p1691b059b9)" style="fill: none; stroke: #e8e8e8; stroke-width: 0.4; stroke-linecap: square"/>
     </g>
     <g id="line2d_64">
      <g>
       <use xlink:href="#m977235aaf7" x="361.940833" y="163.226023" style="fill: #444444; stroke: #444444; stroke-width: 0.8"/>
      </g>
     </g>
     <g id="text_27">
      <!-- 100 -->
      <g style="fill: #444444" transform="translate(342.125208 166.075437) scale(0.075 -0.075)">
       <use xlink:href="#DejaVuSerif-31"/>
       <use xlink:href="#DejaVuSerif-30" transform="translate(63.623047 0)"/>
       <use xlink:href="#DejaVuSerif-30" transform="translate(127.246094 0)"/>
      </g>
     </g>
    </g>
    <g id="ytick_18">
     <g id="line2d_65">
      <path d="M 361.940833 143.542891 
L 493.373088 143.542891 
" clip-path="url(#p1691b059b9)" style="fill: none; stroke: #e8e8e8; stroke-width: 0.4; stroke-linecap: square"/>
     </g>
     <g id="line2d_66">
      <g>
       <use xlink:href="#m977235aaf7" x="361.940833" y="143.542891" style="fill: #444444; stroke: #444444; stroke-width: 0.8"/>
      </g>
     </g>
     <g id="text_28">
      <!-- 150 -->
      <g style="fill: #444444" transform="translate(342.125208 146.392305) scale(0.075 -0.075)">
       <use xlink:href="#DejaVuSerif-31"/>
       <use xlink:href="#DejaVuSerif-35" transform="translate(63.623047 0)"/>
       <use xlink:href="#DejaVuSerif-30" transform="translate(127.246094 0)"/>
      </g>
     </g>
    </g>
    <g id="ytick_19">
     <g id="line2d_67">
      <path d="M 361.940833 123.859759 
L 493.373088 123.859759 
" clip-path="url(#p1691b059b9)" style="fill: none; stroke: #e8e8e8; stroke-width: 0.4; stroke-linecap: square"/>
     </g>
     <g id="line2d_68">
      <g>
       <use xlink:href="#m977235aaf7" x="361.940833" y="123.859759" style="fill: #444444; stroke: #444444; stroke-width: 0.8"/>
      </g>
     </g>
     <g id="text_29">
      <!-- 200 -->
      <g style="fill: #444444" transform="translate(342.125208 126.709173) scale(0.075 -0.075)">
       <use xlink:href="#DejaVuSerif-32"/>
       <use xlink:href="#DejaVuSerif-30" transform="translate(63.623047 0)"/>
       <use xlink:href="#DejaVuSerif-30" transform="translate(127.246094 0)"/>
      </g>
     </g>
    </g>
    <g id="ytick_20">
     <g id="line2d_69">
      <path d="M 361.940833 104.176627 
L 493.373088 104.176627 
" clip-path="url(#p1691b059b9)" style="fill: none; stroke: #e8e8e8; stroke-width: 0.4; stroke-linecap: square"/>
     </g>
     <g id="line2d_70">
      <g>
       <use xlink:href="#m977235aaf7" x="361.940833" y="104.176627" style="fill: #444444; stroke: #444444; stroke-width: 0.8"/>
      </g>
     </g>
     <g id="text_30">
      <!-- 250 -->
      <g style="fill: #444444" transform="translate(342.125208 107.026041) scale(0.075 -0.075)">
       <use xlink:href="#DejaVuSerif-32"/>
       <use xlink:href="#DejaVuSerif-35" transform="translate(63.623047 0)"/>
       <use xlink:href="#DejaVuSerif-30" transform="translate(127.246094 0)"/>
      </g>
     </g>
    </g>
    <g id="ytick_21">
     <g id="line2d_71">
      <path d="M 361.940833 84.493496 
L 493.373088 84.493496 
" clip-path="url(#p1691b059b9)" style="fill: none; stroke: #e8e8e8; stroke-width: 0.4; stroke-linecap: square"/>
     </g>
     <g id="line2d_72">
      <g>
       <use xlink:href="#m977235aaf7" x="361.940833" y="84.493496" style="fill: #444444; stroke: #444444; stroke-width: 0.8"/>
      </g>
     </g>
     <g id="text_31">
      <!-- 300 -->
      <g style="fill: #444444" transform="translate(342.125208 87.34291) scale(0.075 -0.075)">
       <use xlink:href="#DejaVuSerif-33"/>
       <use xlink:href="#DejaVuSerif-30" transform="translate(63.623047 0)"/>
       <use xlink:href="#DejaVuSerif-30" transform="translate(127.246094 0)"/>
      </g>
     </g>
    </g>
    <g id="ytick_22">
     <g id="line2d_73">
      <path d="M 361.940833 64.810364 
L 493.373088 64.810364 
" clip-path="url(#p1691b059b9)" style="fill: none; stroke: #e8e8e8; stroke-width: 0.4; stroke-linecap: square"/>
     </g>
     <g id="line2d_74">
      <g>
       <use xlink:href="#m977235aaf7" x="361.940833" y="64.810364" style="fill: #444444; stroke: #444444; stroke-width: 0.8"/>
      </g>
     </g>
     <g id="text_32">
      <!-- 350 -->
      <g style="fill: #444444" transform="translate(342.125208 67.659778) scale(0.075 -0.075)">
       <use xlink:href="#DejaVuSerif-33"/>
       <use xlink:href="#DejaVuSerif-35" transform="translate(63.623047 0)"/>
       <use xlink:href="#DejaVuSerif-30" transform="translate(127.246094 0)"/>
      </g>
     </g>
    </g>
   </g>
   <g id="patch_13">
    <path d="M 378.369865 197.966751 
L 411.227929 197.966751 
L 411.227929 190.487161 
L 378.369865 190.487161 
L 378.369865 197.966751 
z
" clip-path="url(#p1691b059b9)" style="fill: #a8c4db; stroke: #2c5f8a; stroke-linejoin: miter"/>
   </g>
   <g id="line2d_75">
    <path d="M 394.798897 197.966751 
L 394.798897 199.836648 
" clip-path="url(#p1691b059b9)" style="fill: none; stroke: #000000; stroke-linecap: square"/>
   </g>
   <g id="line2d_76">
    <path d="M 394.798897 190.487161 
L 394.798897 186.058456 
" clip-path="url(#p1691b059b9)" style="fill: none; stroke: #000000; stroke-linecap: square"/>
   </g>
   <g id="line2d_77">
    <path d="M 386.584381 199.836648 
L 403.013413 199.836648 
" clip-path="url(#p1691b059b9)" style="fill: none; stroke: #000000; stroke-linecap: square"/>
   </g>
   <g id="line2d_78">
    <path d="M 386.584381 186.058456 
L 403.013413 186.058456 
" clip-path="url(#p1691b059b9)" style="fill: none; stroke: #000000; stroke-linecap: square"/>
   </g>
   <g id="line2d_79">
    <g clip-path="url(#p1691b059b9)">
     <use xlink:href="#ma4be779e1b" x="394.798897" y="64.810364" style="fill-opacity: 0; stroke: #000000; stroke-opacity: 0.5"/>
     <use xlink:href="#ma4be779e1b" x="394.798897" y="164.407011" style="fill-opacity: 0; stroke: #000000; stroke-opacity: 0.5"/>
    </g>
   </g>
   <g id="patch_14">
    <path d="M 444.085993 200.623974 
L 476.944056 200.623974 
L 476.944056 200.230311 
L 444.085993 200.230311 
L 444.085993 200.623974 
z
" clip-path="url(#p1691b059b9)" style="fill: #a3d4b3; stroke: #3a8c5c; stroke-linejoin: miter"/>
   </g>
   <g id="line2d_80">
    <path d="M 460.515025 200.623974 
L 460.515025 201.017636 
" clip-path="url(#p1691b059b9)" style="fill: none; stroke: #000000; stroke-linecap: square"/>
   </g>
   <g id="line2d_81">
    <path d="M 460.515025 200.230311 
L 460.515025 199.836648 
" clip-path="url(#p1691b059b9)" style="fill: none; stroke: #000000; stroke-linecap: square"/>
   </g>
   <g id="line2d_82">
    <path d="M 452.300509 201.017636 
L 468.72954 201.017636 
" clip-path="url(#p1691b059b9)" style="fill: none; stroke: #000000; stroke-linecap: square"/>
   </g>
   <g id="line2d_83">
    <path d="M 452.300509 199.836648 
L 468.72954 199.836648 
" clip-path="url(#p1691b059b9)" style="fill: none; stroke: #000000; stroke-linecap: square"/>
   </g>
   <g id="line2d_84">
    <g clip-path="url(#p1691b059b9)">
     <use xlink:href="#ma4be779e1b" x="460.515025" y="199.442986" style="fill-opacity: 0; stroke: #000000; stroke-opacity: 0.5"/>
     <use xlink:href="#ma4be779e1b" x="460.515025" y="198.655661" style="fill-opacity: 0; stroke: #000000; stroke-opacity: 0.5"/>
     <use xlink:href="#ma4be779e1b" x="460.515025" y="198.261998" style="fill-opacity: 0; stroke: #000000; stroke-opacity: 0.5"/>
    </g>
   </g>
   <g id="line2d_85">
    <path d="M 378.369865 195.506359 
L 411.227929 195.506359 
" clip-path="url(#p1691b059b9)" style="fill: none; stroke: #333333; stroke-width: 1.2"/>
   </g>
   <g id="line2d_86">
    <path d="M 444.085993 200.623974 
L 476.944056 200.623974 
" clip-path="url(#p1691b059b9)" style="fill: none; stroke: #333333; stroke-width: 1.2"/>
   </g>
   <g id="patch_15">
    <path d="M 361.940833 207.828 
L 361.940833 58 
" style="fill: none; stroke: #cccccc; stroke-width: 0.5; stroke-linejoin: miter; stroke-linecap: square"/>
   </g>
   <g id="patch_16">
    <path d="M 361.940833 207.828 
L 493.373088 207.828 
" style="fill: none; stroke: #cccccc; stroke-width: 0.5; stroke-linejoin: miter; stroke-linecap: square"/>
   </g>
   <g id="text_33">
    <!-- 72% reduction (median) -->
    <g style="fill: #6b7280" transform="translate(384.74368 70.810306) scale(0.07 -0.07)">
     <defs>
      <path id="DejaVuSerif-37" d="M 3609 4347 
L 1784 0 
L 1319 0 
L 3059 4153 
L 903 4153 
L 903 3578 
L 538 3578 
L 538 4666 
L 3609 4666 
L 3609 4347 
z
" transform="scale(0.015625)"/>
     </defs>
     <use xlink:href="#DejaVuSerif-37"/>
     <use xlink:href="#DejaVuSerif-32" transform="translate(63.623047 0)"/>
     <use xlink:href="#DejaVuSerif-25" transform="translate(127.246094 0)"/>
     <use xlink:href="#DejaVuSerif-20" transform="translate(222.265625 0)"/>
     <use xlink:href="#DejaVuSerif-72" transform="translate(254.052734 0)"/>
     <use xlink:href="#DejaVuSerif-65" transform="translate(301.855469 0)"/>
     <use xlink:href="#DejaVuSerif-64" transform="translate(361.035156 0)"/>
     <use xlink:href="#DejaVuSerif-75" transform="translate(425.048828 0)"/>
     <use xlink:href="#DejaVuSerif-63" transform="translate(489.453125 0)"/>
     <use xlink:href="#DejaVuSerif-74" transform="translate(545.458984 0)"/>
     <use xlink:href="#DejaVuSerif-69" transform="translate(585.644531 0)"/>
     <use xlink:href="#DejaVuSerif-6f" transform="translate(617.626953 0)"/>
     <use xlink:href="#DejaVuSerif-6e" transform="translate(677.832031 0)"/>
     <use xlink:href="#DejaVuSerif-20" transform="translate(742.236328 0)"/>
     <use xlink:href="#DejaVuSerif-28" transform="translate(774.023438 0)"/>
     <use xlink:href="#DejaVuSerif-6d" transform="translate(813.037109 0)"/>
     <use xlink:href="#DejaVuSerif-65" transform="translate(907.861328 0)"/>
     <use xlink:href="#DejaVuSerif-64" transform="translate(967.041016 0)"/>
     <use xlink:href="#DejaVuSerif-69" transform="translate(1031.054688 0)"/>
     <use xlink:href="#DejaVuSerif-61" transform="translate(1063.037109 0)"/>
     <use xlink:href="#DejaVuSerif-6e" transform="translate(1122.65625 0)"/>
     <use xlink:href="#DejaVuSerif-29" transform="translate(1187.060547 0)"/>
    </g>
   </g>
   <g id="text_34">
    <!-- Unique file extensions -->
    <g transform="translate(376.780242 52) scale(0.09 -0.09)">
     <defs>
      <path id="DejaVuSerif-55" d="M 897 4331 
L 300 4331 
L 300 4666 
L 2125 4666 
L 2125 4331 
L 1528 4331 
L 1528 1919 
Q 1528 1025 1820 672 
Q 2113 319 2828 319 
Q 3544 319 3836 672 
Q 4128 1025 4128 1919 
L 4128 4331 
L 3531 4331 
L 3531 4666 
L 5106 4666 
L 5106 4331 
L 4513 4331 
L 4513 1856 
Q 4513 791 4103 350 
Q 3694 -91 2713 -91 
Q 1731 -91 1314 353 
Q 897 797 897 1856 
L 897 4331 
z
" transform="scale(0.015625)"/>
      <path id="DejaVuSerif-71" d="M 3359 2988 
L 3359 -997 
L 3909 -997 
L 3909 -1331 
L 2241 -1331 
L 2241 -997 
L 2784 -997 
L 2784 519 
Q 2616 206 2355 57 
Q 2094 -91 1709 -91 
Q 1097 -91 708 395 
Q 319 881 319 1663 
Q 319 2444 706 2928 
Q 1094 3413 1709 3413 
Q 2094 3413 2355 3264 
Q 2616 3116 2784 2803 
L 2784 3322 
L 3909 3322 
L 3909 2988 
L 3359 2988 
z
M 2784 1825 
Q 2784 2422 2554 2737 
Q 2325 3053 1888 3053 
Q 1444 3053 1217 2703 
Q 991 2353 991 1663 
Q 991 975 1217 622 
Q 1444 269 1888 269 
Q 2325 269 2554 583 
Q 2784 897 2784 1497 
L 2784 1825 
z
" transform="scale(0.015625)"/>
     </defs>
     <use xlink:href="#DejaVuSerif-55"/>
     <use xlink:href="#DejaVuSerif-6e" transform="translate(84.277344 0)"/>
     <use xlink:href="#DejaVuSerif-69" transform="translate(148.681641 0)"/>
     <use xlink:href="#DejaVuSerif-71" transform="translate(180.664062 0)"/>
     <use xlink:href="#DejaVuSerif-75" transform="translate(244.677734 0)"/>
     <use xlink:href="#DejaVuSerif-65" transform="translate(309.082031 0)"/>
     <use xlink:href="#DejaVuSerif-20" transform="translate(368.261719 0)"/>
     <use xlink:href="#DejaVuSerif-66" transform="translate(400.048828 0)"/>
     <use xlink:href="#DejaVuSerif-69" transform="translate(437.060547 0)"/>
     <use xlink:href="#DejaVuSerif-6c" transform="translate(469.042969 0)"/>
     <use xlink:href="#DejaVuSerif-65" transform="translate(501.025391 0)"/>
     <use xlink:href="#DejaVuSerif-20" transform="translate(560.205078 0)"/>
     <use xlink:href="#DejaVuSerif-65" transform="translate(591.992188 0)"/>
     <use xlink:href="#DejaVuSerif-78" transform="translate(651.171875 0)"/>
     <use xlink:href="#DejaVuSerif-74" transform="translate(707.568359 0)"/>
     <use xlink:href="#DejaVuSerif-65" transform="translate(747.753906 0)"/>
     <use xlink:href="#DejaVuSerif-6e" transform="translate(806.933594 0)"/>
     <use xlink:href="#DejaVuSerif-73" transform="translate(871.337891 0)"/>
     <use xlink:href="#DejaVuSerif-69" transform="translate(922.65625 0)"/>
     <use xlink:href="#DejaVuSerif-6f" transform="translate(954.638672 0)"/>
     <use xlink:href="#DejaVuSerif-6e" transform="translate(1014.84375 0)"/>
     <use xlink:href="#DejaVuSerif-73" transform="translate(1079.248047 0)"/>
    </g>
   </g>
  </g>
  <g id="text_35">
   <!-- Structural comparison: original repositories vs. standardized output -->
   <g style="fill: #333333" transform="translate(77.973906 14.798437) scale(0.1 -0.1)">
    <defs>
     <path id="DejaVuSerif-53" d="M 594 225 
L 594 1288 
L 953 1284 
Q 969 753 1261 498 
Q 1553 244 2150 244 
Q 2706 244 2998 464 
Q 3291 684 3291 1106 
Q 3291 1444 3114 1625 
Q 2938 1806 2369 1978 
L 1753 2163 
Q 1084 2366 811 2669 
Q 538 2972 538 3500 
Q 538 4094 959 4422 
Q 1381 4750 2144 4750 
Q 2469 4750 2856 4679 
Q 3244 4609 3681 4475 
L 3681 3481 
L 3328 3481 
Q 3275 3975 2998 4195 
Q 2722 4416 2156 4416 
Q 1663 4416 1405 4214 
Q 1147 4013 1147 3628 
Q 1147 3294 1340 3103 
Q 1534 2913 2163 2725 
L 2741 2553 
Q 3375 2363 3645 2067 
Q 3916 1772 3916 1275 
Q 3916 597 3481 253 
Q 3047 -91 2188 -91 
Q 1803 -91 1404 -12 
Q 1006 66 594 225 
z
" transform="scale(0.015625)"/>
     <path id="DejaVuSerif-3a" d="M 666 325 
Q 666 500 786 622 
Q 906 744 1081 744 
Q 1256 744 1376 622 
Q 1497 500 1497 325 
Q 1497 150 1378 29 
Q 1259 -91 1081 -91 
Q 903 -91 784 29 
Q 666 150 666 325 
z
M 666 2363 
Q 666 2538 786 2658 
Q 906 2778 1081 2778 
Q 1259 2778 1378 2659 
Q 1497 2541 1497 2363 
Q 1497 2184 1378 2065 
Q 1259 1947 1081 1947 
Q 906 1947 786 2067 
Q 666 2188 666 2363 
z
" transform="scale(0.015625)"/>
     <path id="DejaVuSerif-76" d="M 1581 0 
L 359 2988 
L -19 2988 
L -19 3322 
L 1509 3322 
L 1509 2988 
L 978 2988 
L 1913 703 
L 2847 2988 
L 2350 2988 
L 2350 3322 
L 3597 3322 
L 3597 2988 
L 3225 2988 
L 2003 0 
L 1581 0 
z
" transform="scale(0.015625)"/>
     <path id="DejaVuSerif-2e" d="M 603 325 
Q 603 500 722 622 
Q 841 744 1019 744 
Q 1191 744 1312 622 
Q 1434 500 1434 325 
Q 1434 153 1312 31 
Q 1191 -91 1019 -91 
Q 841 -91 722 29 
Q 603 150 603 325 
z
" transform="scale(0.015625)"/>
     <path id="DejaVuSerif-7a" d="M 256 0 
L 256 269 
L 2338 2988 
L 691 2988 
L 691 2413 
L 359 2413 
L 359 3322 
L 3078 3322 
L 3078 3053 
L 997 331 
L 2803 331 
L 2803 934 
L 3138 934 
L 3138 0 
L 256 0 
z
" transform="scale(0.015625)"/>
    </defs>
    <use xlink:href="#DejaVuSerif-53"/>
    <use xlink:href="#DejaVuSerif-74" transform="translate(68.505859 0)"/>
    <use xlink:href="#DejaVuSerif-72" transform="translate(108.691406 0)"/>
    <use xlink:href="#DejaVuSerif-75" transform="translate(156.494141 0)"/>
    <use xlink:href="#DejaVuSerif-63" transform="translate(220.898438 0)"/>
    <use xlink:href="#DejaVuSerif-74" transform="translate(276.904297 0)"/>
    <use xlink:href="#DejaVuSerif-75" transform="translate(317.089844 0)"/>
    <use xlink:href="#DejaVuSerif-72" transform="translate(381.494141 0)"/>
    <use xlink:href="#DejaVuSerif-61" transform="translate(429.296875 0)"/>
    <use xlink:href="#DejaVuSerif-6c" transform="translate(488.916016 0)"/>
    <use xlink:href="#DejaVuSerif-20" transform="translate(520.898438 0)"/>
    <use xlink:href="#DejaVuSerif-63" transform="translate(552.685547 0)"/>
    <use xlink:href="#DejaVuSerif-6f" transform="translate(608.691406 0)"/>
    <use xlink:href="#DejaVuSerif-6d" transform="translate(668.896484 0)"/>
    <use xlink:href="#DejaVuSerif-70" transform="translate(763.720703 0)"/>
    <use xlink:href="#DejaVuSerif-61" transform="translate(827.734375 0)"/>
    <use xlink:href="#DejaVuSerif-72" transform="translate(887.353516 0)"/>
    <use xlink:href="#DejaVuSerif-69" transform="translate(935.15625 0)"/>
    <use xlink:href="#DejaVuSerif-73" transform="translate(967.138672 0)"/>
    <use xlink:href="#DejaVuSerif-6f" transform="translate(1018.457031 0)"/>
    <use xlink:href="#DejaVuSerif-6e" transform="translate(1078.662109 0)"/>
    <use xlink:href="#DejaVuSerif-3a" transform="translate(1143.066406 0)"/>
    <use xlink:href="#DejaVuSerif-20" transform="translate(1176.757812 0)"/>
    <use xlink:href="#DejaVuSerif-6f" transform="translate(1208.544922 0)"/>
    <use xlink:href="#DejaVuSerif-72" transform="translate(1268.75 0)"/>
    <use xlink:href="#DejaVuSerif-69" transform="translate(1316.552734 0)"/>
    <use xlink:href="#DejaVuSerif-67" transform="translate(1348.535156 0)"/>
    <use xlink:href="#DejaVuSerif-69" transform="translate(1412.548828 0)"/>
    <use xlink:href="#DejaVuSerif-6e" transform="translate(1444.53125 0)"/>
    <use xlink:href="#DejaVuSerif-61" transform="translate(1508.935547 0)"/>
    <use xlink:href="#DejaVuSerif-6c" transform="translate(1568.554688 0)"/>
    <use xlink:href="#DejaVuSerif-20" transform="translate(1600.537109 0)"/>
    <use xlink:href="#DejaVuSerif-72" transform="translate(1632.324219 0)"/>
    <use xlink:href="#DejaVuSerif-65" transform="translate(1680.126953 0)"/>
    <use xlink:href="#DejaVuSerif-70" transform="translate(1739.306641 0)"/>
    <use xlink:href="#DejaVuSerif-6f" transform="translate(1803.320312 0)"/>
    <use xlink:href="#DejaVuSerif-73" transform="translate(1863.525391 0)"/>
    <use xlink:href="#DejaVuSerif-69" transform="translate(1914.84375 0)"/>
    <use xlink:href="#DejaVuSerif-74" transform="translate(1946.826172 0)"/>
    <use xlink:href="#DejaVuSerif-6f" transform="translate(1987.011719 0)"/>
    <use xlink:href="#DejaVuSerif-72" transform="translate(2047.216797 0)"/>
    <use xlink:href="#DejaVuSerif-69" transform="translate(2095.019531 0)"/>
    <use xlink:href="#DejaVuSerif-65" transform="translate(2127.001953 0)"/>
    <use xlink:href="#DejaVuSerif-73" transform="translate(2186.181641 0)"/>
    <use xlink:href="#DejaVuSerif-20" transform="translate(2237.5 0)"/>
    <use xlink:href="#DejaVuSerif-76" transform="translate(2269.287109 0)"/>
    <use xlink:href="#DejaVuSerif-73" transform="translate(2325.78125 0)"/>
    <use xlink:href="#DejaVuSerif-2e" transform="translate(2377.099609 0)"/>
    <use xlink:href="#DejaVuSerif-20" transform="translate(2408.886719 0)"/>
    <use xlink:href="#DejaVuSerif-73" transform="translate(2440.673828 0)"/>
    <use xlink:href="#DejaVuSerif-74" transform="translate(2491.992188 0)"/>
    <use xlink:href="#DejaVuSerif-61" transform="translate(2532.177734 0)"/>
    <use xlink:href="#DejaVuSerif-6e" transform="translate(2591.796875 0)"/>
    <use xlink:href="#DejaVuSerif-64" transform="translate(2656.201172 0)"/>
    <use xlink:href="#DejaVuSerif-61" transform="translate(2720.214844 0)"/>
    <use xlink:href="#DejaVuSerif-72" transform="translate(2779.833984 0)"/>
    <use xlink:href="#DejaVuSerif-64" transform="translate(2827.636719 0)"/>
    <use xlink:href="#DejaVuSerif-69" transform="translate(2891.650391 0)"/>
    <use xlink:href="#DejaVuSerif-7a" transform="translate(2923.632812 0)"/>
    <use xlink:href="#DejaVuSerif-65" transform="translate(2976.318359 0)"/>
    <use xlink:href="#DejaVuSerif-64" transform="translate(3035.498047 0)"/>
    <use xlink:href="#DejaVuSerif-20" transform="translate(3099.511719 0)"/>
    <use xlink:href="#DejaVuSerif-6f" transform="translate(3131.298828 0)"/>
    <use xlink:href="#DejaVuSerif-75" transform="translate(3191.503906 0)"/>
    <use xlink:href="#DejaVuSerif-74" transform="translate(3255.908203 0)"/>
    <use xlink:href="#DejaVuSerif-70" transform="translate(3296.09375 0)"/>
    <use xlink:href="#DejaVuSerif-75" transform="translate(3360.107422 0)"/>
    <use xlink:href="#DejaVuSerif-74" transform="translate(3424.511719 0)"/>
   </g>
  </g>
 </g>
 <defs>
  <clipPath id="ped3774c24e">
   <rect x="31.7875" y="58" width="131.432255" height="149.828"/>
  </clipPath>
  <clipPath id="pe765b4befa">
   <rect x="196.864167" y="58" width="131.432255" height="149.828"/>
  </clipPath>
  <clipPath id="p1691b059b9">
   <rect x="361.940833" y="58" width="131.432255" height="149.828"/>
  </clipPath>
 </defs>
</svg>
